<?xml version="1.0" encoding="iso-8859-1"?>
<!-- Generator: Adobe Illustrator 19.0.0, SVG Export Plug-In . SVG Version: 6.00 Build 0)  -->
<svg version="1.1" id="Layer_1" xmlns="http://www.w3.org/2000/svg" xmlns:xlink="http://www.w3.org/1999/xlink" x="0px" y="0px"
	 viewBox="0 0 481.306 481.306" style="enable-background:new 0 0 481.306 481.306;" xml:space="preserve">
<g>
	<g>
		<g>
			<path d="M210.704,200.285c0.792,0.248,1.592,0.368,2.384,0.368c3.408,0,6.568-2.192,7.632-5.616
				c7.536-24.16,22.168-45.16,42.304-60.736c3.496-2.704,4.136-7.728,1.432-11.224c-2.704-3.496-7.728-4.128-11.224-1.432
				c-22.744,17.592-39.272,41.32-47.784,68.624C204.136,194.485,206.488,198.965,210.704,200.285z"/>
			<path d="M285.68,119.621c1.072,0,2.16-0.216,3.208-0.672c4.576-2.008,9.336-3.752,14.144-5.192
				c4.232-1.264,6.64-5.72,5.376-9.952c-1.264-4.24-5.728-6.656-9.952-5.376c-5.44,1.624-10.816,3.592-15.992,5.864
				c-4.048,1.768-5.896,6.488-4.12,10.536C279.664,117.829,282.6,119.621,285.68,119.621z"/>
			<path d="M477.272,226.293c-0.128-5.664-0.616-9.536-1.432-15.112c-0.64-4.376-4.672-7.648-9.072-7
				c-4.368,0.632-7.392,4.208-6.752,8.584c0.728,4.944,1.152,9.016,1.272,14.032c0.104,4.352,3.664,5.856,7.992,5.856
				c0.064,0,0.128,0,0.2,0C473.896,232.653,477.384,230.709,477.272,226.293z"/>
			<path d="M332.696,108.773c1.832-0.08,3.688-0.12,5.544-0.12c50.032,0,94.704,29.872,113.808,76.112
				c1.272,3.088,4.256,4.952,7.4,4.952c1.016,0,2.048-0.2,3.048-0.616c4.08-1.688,6.024-6.368,4.336-10.448
				c-21.592-52.24-72.064-86-128.592-86c-2.088,0-4.176,0.048-6.248,0.136c-4.416,0.192-7.832,3.928-7.64,8.344
				C324.544,105.549,328.28,108.797,332.696,108.773z"/>
			<path d="M458.328,258.821c-5.544,24.672-18.408,46.776-37.224,63.912c-3.264,2.976-3.504,8.04-0.528,11.304
				c1.584,1.736,3.744,2.616,5.92,2.616c1.928,0,3.856-0.688,5.376-2.088c21.256-19.36,35.8-44.336,42.064-72.232
				c0.968-4.312-1.736-8.592-6.048-9.56C463.616,251.805,459.304,254.509,458.328,258.821z"/>
			<path d="M336,64.653c4.416,0,8-3.584,8-8v-48c0-4.416-3.584-8-8-8c-4.416,0-8,3.584-8,8v48C328,61.069,331.584,64.653,336,64.653
				z"/>
			<path d="M439.36,97.957c2.048,0,4.096-0.784,5.656-2.344l33.944-33.944c3.128-3.128,3.128-8.184,0-11.312
				c-3.128-3.128-8.184-3.128-11.312,0l-33.944,33.944c-3.128,3.128-3.128,8.184,0,11.312
				C435.264,97.173,437.312,97.957,439.36,97.957z"/>
			<path d="M203.312,119.277c1.56,1.56,3.608,2.344,5.656,2.344c2.048,0,4.096-0.784,5.656-2.344c3.128-3.128,3.128-8.184,0-11.312
				l-33.936-33.936c-3.128-3.128-8.184-3.128-11.312,0c-3.128,3.128-3.128,8.184,0,11.312L203.312,119.277z"/>
			<path d="M398.2,464.645l-16.072,0.016c-0.008,0-0.024,0-0.032,0c-4.4,0-7.984,3.488-8,7.896
				c-0.016,4.416,3.544,7.952,7.968,7.968l16.064,0.128c0.016,0,0.032,0,0.04,0c4.4,0,7.976-3.56,7.992-7.96
				C406.184,468.269,402.616,464.669,398.2,464.645z"/>
			<path d="M26.088,269.517c1.384,0.944,2.952,1.392,4.504,1.392c2.56,0,5.072-1.224,6.624-3.48c2.792-4.096,5.888-8.072,9.2-11.808
				c2.936-3.304,2.632-8.368-0.68-11.296c-3.304-2.928-8.368-2.632-11.296,0.68c-3.76,4.232-7.272,8.744-10.448,13.392
				C21.504,262.045,22.44,267.021,26.088,269.517z"/>
			<path d="M227.896,251.173c2.192,0,4.376-0.896,5.952-2.656c2.952-3.288,2.68-8.344-0.608-11.296
				c-23.232-20.856-53.168-33.392-83.664-35.232c-6.624-0.912-12.208-1.336-17.576-1.336c-20.064,0-39.344,4.52-57.296,13.44
				c-3.96,1.96-5.576,6.76-3.608,10.72c1.96,3.952,6.744,5.584,10.72,3.608c15.72-7.808,32.608-11.768,50.184-11.768
				c4.624,0,9.52,0.376,16,1.24c27.52,1.688,54,12.776,74.56,31.232C224.08,250.501,225.992,251.173,227.896,251.173z"/>
			<path d="M420,352.637h-32.344c0.208-2.08,0.328-3.856,0.336-6.52c0-39.84-23.128-75.024-58.936-89.64
				c-4.112-1.696-8.768,0.296-10.432,4.384c-1.672,4.096,0.296,8.768,4.384,10.432c29.76,12.144,48.984,41.52,48.984,75.072
				c-0.008,2.608-0.2,4.184-0.488,6.792c-0.192,1.72-0.424,3.832-0.696,6.768c-0.2,2.24,0.552,4.456,2.064,6.12
				c1.512,1.664,3.656,2.608,5.904,2.608H420c24.264,0,44,21.528,44,48c0,17.6-8.824,33.776-23.024,42.2
				c-3.8,2.256-5.056,7.16-2.8,10.96c1.496,2.52,4.16,3.92,6.888,3.92c1.384,0,2.792-0.36,4.072-1.136
				c19.04-11.296,30.864-32.736,30.864-55.96C480,381.349,453.088,352.637,420,352.637z"/>
			<path d="M333.992,464.261l-160.448-0.768c-4.536-0.032-8.016,3.6-8.04,8.016s3.544,8.12,7.96,8.144l160.448,1
				c0.016,0,0.032,0,0.04,0c4.4,0,7.976-3.752,8-8.152C341.976,468.077,338.408,464.285,333.992,464.261z"/>
			<path d="M126.32,462.501c-5.016-0.664-9.984-1.616-14.768-2.84c-4.272-1.128-8.632,1.48-9.728,5.768
				c-1.096,4.272,1.488,8.632,5.768,9.728c5.392,1.376,10.992,2.456,16.632,3.2c0.36,0.048,0.712,0.072,1.064,0.072
				c3.952,0,7.384-2.928,7.912-6.944C133.784,467.101,130.696,463.077,126.32,462.501z"/>
			<path d="M277.816,250.213c-5.784,0.792-11.496,2.112-16.984,3.92c-4.2,1.376-6.48,5.904-5.096,10.096
				c1.104,3.368,4.24,5.504,7.6,5.504c0.832,0,1.672-0.128,2.488-0.408c4.576-1.504,9.336-2.6,14.16-3.264
				c4.376-0.6,7.44-4.632,6.84-9.008C286.224,252.669,282.128,249.589,277.816,250.213z"/>
			<path d="M71.168,440.613c-6.464-4.744-12.496-10.208-18.312-16.632C29.088,401.005,16,369.941,16,336.525
				c0-9.504,1.08-18.968,3.216-28.12c1-4.304-1.68-8.608-5.984-9.608c-4.288-0.992-8.608,1.672-9.608,5.984
				C1.216,315.117,0,325.797,0,336.525c0,37.792,14.824,72.944,41.352,98.56c6.168,6.84,13.008,13.04,20.344,18.424
				c1.424,1.048,3.088,1.552,4.728,1.552c2.456,0,4.888-1.128,6.456-3.264C75.496,448.237,74.728,443.229,71.168,440.613z"/>
		</g>
	</g>
</g>
<g>
</g>
<g>
</g>
<g>
</g>
<g>
</g>
<g>
</g>
<g>
</g>
<g>
</g>
<g>
</g>
<g>
</g>
<g>
</g>
<g>
</g>
<g>
</g>
<g>
</g>
<g>
</g>
<g>
</g>
</svg>
