<?xml version="1.0" encoding="iso-8859-1"?>
<!-- Generator: Adobe Illustrator 19.0.0, SVG Export Plug-In . SVG Version: 6.00 Build 0)  -->
<svg version="1.1" id="Layer_1" xmlns="http://www.w3.org/2000/svg" xmlns:xlink="http://www.w3.org/1999/xlink" x="0px" y="0px"
	 viewBox="0 0 480 480" style="enable-background:new 0 0 480 480;" xml:space="preserve">
<g>
	<g>
		<g>
			<path d="M272,169.885h-16c-4.424,0-8,3.576-8,8s3.576,8,8,8h16c4.424,0,8-3.576,8-8S276.424,169.885,272,169.885z"/>
			<path d="M40,177.885c0,4.424,3.584,8,8,8h160c4.416,0,8-3.576,8-8s-3.584-8-8-8H48C43.584,169.885,40,173.461,40,177.885z"/>
			<path d="M432,185.885c4.424,0,8-3.576,8-8s-3.576-8-8-8H320c-4.424,0-8,3.576-8,8s3.576,8,8,8H432z"/>
			<path d="M184,129.885c0-4.424-3.584-8-8-8H8c-4.416,0-8,3.576-8,8s3.584,8,8,8h168C180.416,137.885,184,134.309,184,129.885z"/>
			<path d="M40,41.885h136c4.416,0,8-3.576,8-8s-3.584-8-8-8H40c-4.416,0-8,3.576-8,8S35.584,41.885,40,41.885z"/>
			<path d="M344,41.885h88c4.424,0,8-3.576,8-8s-3.576-8-8-8h-88c-4.424,0-8,3.576-8,8S339.576,41.885,344,41.885z"/>
			<path d="M8,89.885h128c4.416,0,8-3.576,8-8s-3.584-8-8-8H8c-4.416,0-8,3.576-8,8S3.584,89.885,8,89.885z"/>
			<path d="M472,121.885H304c-4.424,0-8,3.576-8,8s3.576,8,8,8h168c4.424,0,8-3.576,8-8S476.424,121.885,472,121.885z"/>
			<path d="M368,81.885c0,4.424,3.576,8,8,8h96c4.424,0,8-3.576,8-8s-3.576-8-8-8h-96C371.576,73.885,368,77.461,368,81.885z"/>
			<path d="M208,225.885c0,4.424,3.584,8,8,8h184c4.424,0,8-3.576,8-8s-3.576-8-8-8H216C211.584,217.885,208,221.461,208,225.885z"
				/>
			<path d="M248,265.885c-4.416,0-8,3.576-8,8s3.584,8,8,8h136c4.424,0,8-3.576,8-8s-3.576-8-8-8H248z"/>
			<path d="M344,321.885c0-4.424-3.576-8-8-8H144c-4.416,0-8,3.576-8,8s3.584,8,8,8h192C340.424,329.885,344,326.309,344,321.885z"
				/>
			<path d="M296,361.885H176c-4.416,0-8,3.576-8,8s3.584,8,8,8h120c4.424,0,8-3.576,8-8S300.424,361.885,296,361.885z"/>
			<path d="M272,409.885h-64c-4.416,0-8,3.576-8,8s3.584,8,8,8h64c4.424,0,8-3.576,8-8S276.424,409.885,272,409.885z"/>
			<path d="M256,457.885h-32c-4.416,0-8,3.576-8,8s3.584,8,8,8h32c4.424,0,8-3.576,8-8S260.424,457.885,256,457.885z"/>
			<path d="M58.024,445.381c-1.168-4.256-5.576-6.768-9.832-5.584c-4.256,1.168-6.76,5.576-5.584,9.832
				c1.6,5.824,3.96,11.408,7,16.616c1.488,2.544,4.168,3.96,6.912,3.96c1.368,0,2.76-0.352,4.024-1.096
				c3.816-2.224,5.104-7.128,2.872-10.944C61.08,454.157,59.264,449.861,58.024,445.381z"/>
			<path d="M133.336,340.517c-3.84-2.208-8.72-0.888-10.928,2.928l-10.776,18.664c-25.28-0.704-49.528,12.456-62.224,34.44
				c-3.152,5.448-5.536,11.272-7.104,17.312c-1.104,4.28,1.464,8.648,5.744,9.752c4.272,1.144,8.648-1.464,9.752-5.736
				c1.2-4.64,3.04-9.128,5.472-13.328c8.248-14.288,22.808-23.752,38.888-26.024L73.832,427.59
				c-2.208,3.832-0.896,8.72,2.928,10.928c1.264,0.728,2.64,1.072,3.992,1.072c2.768,0,5.456-1.44,6.936-4l28.872-50
				c3.016,6.808,4.672,14.216,4.672,21.696c0,9.296-2.472,18.496-7.152,26.6c-6.896,11.936-17.984,20.64-31.224,24.504
				c-4.24,1.24-6.672,5.68-5.432,9.92c1.024,3.496,4.216,5.76,7.672,5.76c0.744,0,1.504-0.104,2.248-0.32
				c17.2-5.032,31.616-16.344,40.584-31.864c6.08-10.536,9.296-22.496,9.296-34.6c0-13.424-4-26.712-11.296-37.928l10.336-17.912
				C138.472,347.613,137.16,342.725,133.336,340.517z"/>
			<path d="M48.6,252.733c2.184-3.848,0.84-8.728-3-10.912c-3.832-2.184-8.72-0.84-10.904,3c-2.992,5.256-5.28,10.872-6.8,16.704
				c-1.12,4.272,1.44,8.64,5.712,9.768c0.672,0.168,1.36,0.256,2.024,0.256c3.552,0,6.792-2.384,7.736-5.976
				C44.536,261.093,46.304,256.773,48.6,252.733z"/>
			<path d="M96.32,284.237c-13.184,3.536-27.464,1.816-39.408-4.744c-3.88-2.152-8.736-0.712-10.864,3.168
				c-2.128,3.864-0.704,8.736,3.168,10.856c10.192,5.592,21.696,8.544,33.272,8.544c6.056,0,12.104-0.808,17.984-2.384
				c25.368-6.8,44.336-27.232,49.712-52.664l20.128-5.392c4.28-1.136,6.816-5.528,5.672-9.792c-1.144-4.272-5.544-6.816-9.8-5.656
				l-20.816,5.576c-17.216-18.144-44.04-26.208-68.344-19.648c-6.08,1.624-11.888,4.056-17.264,7.224
				c-3.808,2.24-5.072,7.152-2.832,10.952c2.24,3.8,7.144,5.072,10.952,2.832c4.128-2.432,8.592-4.304,13.28-5.552
				c15.8-4.256,32.92-0.512,45.848,9.112l-54.68,14.648c-4.272,1.144-6.8,5.528-5.656,9.8c0.96,3.576,4.184,5.928,7.72,5.928
				c0.68,0,1.384-0.088,2.072-0.272l55.792-14.944C126.224,267.549,113.064,279.749,96.32,284.237z"/>
			<path d="M441.544,423.485c-11.96,6.56-26.208,8.304-39.408,4.744c-16.736-4.488-29.896-16.688-35.928-32.408l55.784,14.944
				c0.696,0.184,1.392,0.272,2.08,0.272c3.528,0,6.768-2.36,7.72-5.928c1.144-4.264-1.392-8.656-5.656-9.8l-54.68-14.648
				c12.912-9.624,29.992-13.376,45.856-9.112c4.68,1.256,9.152,3.128,13.272,5.552c3.8,2.232,8.712,0.976,10.952-2.832
				c2.24-3.808,0.976-8.712-2.832-10.952c-5.368-3.168-11.176-5.6-17.248-7.224c-24.44-6.544-51.16,1.512-68.352,19.648
				l-20.824-5.576c-4.264-1.128-8.656,1.392-9.8,5.656c-1.144,4.264,1.392,8.656,5.656,9.8l20.136,5.392
				c5.384,25.424,24.344,45.864,49.704,52.664c5.872,1.576,11.928,2.384,17.976,2.384c11.56,0,23.072-2.952,33.264-8.544
				c3.872-2.128,5.296-6.984,3.168-10.856C450.288,422.781,445.432,421.349,441.544,423.485z"/>
			<path d="M463.8,388.829c-2.176-3.84-7.072-5.184-10.904-3.016c-3.84,2.184-5.192,7.072-3.016,10.904
				c2.296,4.048,4.064,8.376,5.248,12.864c0.944,3.592,4.184,5.96,7.728,5.96c0.68,0,1.368-0.088,2.048-0.264
				c4.272-1.12,6.824-5.504,5.696-9.768C469.064,399.677,466.768,394.061,463.8,388.829z"/>
			<path d="M303.4,34.621c0.976,3.544,4.192,5.872,7.704,5.872c0.704,0,1.424-0.096,2.136-0.288c4.256-1.168,6.76-5.576,5.584-9.832
				c-1.6-5.824-3.96-11.408-7-16.616c-2.224-3.816-7.104-5.104-10.952-2.872c-3.816,2.224-5.096,7.128-2.864,10.944
				C300.352,25.837,302.168,30.133,303.4,34.621z"/>
			<path d="M228.112,139.477c1.264,0.728,2.64,1.072,3.992,1.072c2.768,0,5.456-1.44,6.936-4l10.72-18.568
				c0.728,0.024,1.456,0.128,2.176,0.128c24.712,0,47.744-13.28,60.104-34.672c3.144-5.44,5.528-11.264,7.096-17.312
				c1.104-4.272-1.464-8.64-5.736-9.744c-4.28-1.16-8.648,1.464-9.752,5.736c-1.2,4.656-3.048,9.136-5.472,13.328
				c-8.256,14.288-22.824,23.744-38.88,26.024l28.32-49.056c2.208-3.832,0.896-8.72-2.928-10.928
				c-3.824-2.208-8.72-0.896-10.928,2.928l-28.872,50c-3.016-6.808-4.672-14.216-4.672-21.696c0-9.296,2.472-18.496,7.152-26.6
				c6.904-11.936,17.992-20.64,31.208-24.504c4.24-1.24,6.68-5.688,5.44-9.92c-1.24-4.24-5.68-6.68-9.92-5.44
				c-17.192,5.024-31.6,16.344-40.576,31.864c-6.08,10.536-9.296,22.496-9.296,34.6c0,13.424,4,26.712,11.296,37.928l-10.336,17.904
				C222.976,132.381,224.288,137.269,228.112,139.477z"/>
		</g>
	</g>
</g>
<g>
</g>
<g>
</g>
<g>
</g>
<g>
</g>
<g>
</g>
<g>
</g>
<g>
</g>
<g>
</g>
<g>
</g>
<g>
</g>
<g>
</g>
<g>
</g>
<g>
</g>
<g>
</g>
<g>
</g>
</svg>
