<?xml version="1.0" encoding="iso-8859-1"?>
<!-- Generator: Adobe Illustrator 19.0.0, SVG Export Plug-In . SVG Version: 6.00 Build 0)  -->
<svg version="1.1" id="Layer_1" xmlns="http://www.w3.org/2000/svg" xmlns:xlink="http://www.w3.org/1999/xlink" x="0px" y="0px"
	 viewBox="0 0 480 480" style="enable-background:new 0 0 480 480;" xml:space="preserve">
<g>
	<g>
		<g>
			<path d="M26.088,68.864c1.376,0.936,2.952,1.392,4.504,1.392c2.552,0,5.064-1.216,6.608-3.48
				c2.816-4.12,5.912-8.096,9.208-11.816c2.928-3.304,2.624-8.36-0.68-11.296c-3.304-2.92-8.36-2.624-11.288,0.688
				C30.704,48.576,27.192,53.08,24,57.744C21.504,61.392,22.44,66.368,26.088,68.864z"/>
			<path d="M126.328,261.84c-5.016-0.664-9.984-1.616-14.768-2.84c-4.288-1.112-8.632,1.488-9.728,5.768
				c-1.096,4.272,1.488,8.632,5.768,9.728c5.392,1.376,10.992,2.456,16.632,3.2c0.36,0.048,0.712,0.072,1.064,0.072
				c3.952,0,7.384-2.928,7.912-6.944C133.792,266.44,130.704,262.416,126.328,261.84z"/>
			<path d="M263.336,69.08c0.832,0,1.672-0.136,2.504-0.408c4.576-1.504,9.336-2.6,14.16-3.264c4.368-0.6,7.432-4.632,6.84-9.008
				c-0.608-4.376-4.664-7.472-9.016-6.84c-5.784,0.792-11.496,2.112-16.984,3.92c-4.2,1.376-6.48,5.904-5.104,10.096
				C256.84,66.944,259.976,69.08,263.336,69.08z"/>
			<path d="M81.808,27.768C97.528,19.96,114.416,16,132,16c4.624,0,9.512,0.376,16,1.24c27.52,1.68,54,12.776,74.56,31.232
				c1.52,1.376,3.432,2.048,5.336,2.048c2.192,0,4.376-0.888,5.952-2.648c2.952-3.288,2.68-8.344-0.608-11.296
				c-23.232-20.864-53.16-33.4-83.664-35.24C142.952,0.424,137.368,0,132,0c-20.08,0-39.36,4.52-57.304,13.44
				c-3.96,1.96-5.576,6.76-3.608,10.72C73.048,28.112,77.856,29.752,81.808,27.768z"/>
			<path d="M41.352,234.432c6.152,6.832,13,13.032,20.352,18.432c1.424,1.048,3.088,1.552,4.728,1.552
				c2.456,0,4.888-1.128,6.456-3.264c2.616-3.56,1.848-8.568-1.712-11.184c-6.48-4.76-12.512-10.224-18.32-16.64
				C29.088,200.352,16,169.288,16,135.872c0-9.496,1.08-18.96,3.208-28.12c1-4.296-1.68-8.6-5.984-9.6
				c-4.304-1.016-8.6,1.672-9.6,5.984C1.216,114.48,0,125.16,0,135.872C0,173.664,14.824,208.816,41.352,234.432z"/>
			<path d="M420,151.992h-32.344c0.208-2.088,0.328-3.872,0.336-6.536c0-39.832-23.12-75.016-58.92-89.632
				c-4.088-1.664-8.76,0.288-10.432,4.384s0.288,8.76,4.384,10.432c29.752,12.144,48.968,41.512,48.968,75.088
				c-0.008,2.616-0.2,4.192-0.488,6.808c-0.2,1.72-0.432,3.816-0.696,6.736c-0.2,2.24,0.552,4.456,2.064,6.12
				c1.512,1.664,3.656,2.608,5.904,2.608H420c24.256,0,44,21.528,44,48c0,17.6-8.824,33.776-23.008,42.2
				c-3.8,2.256-5.048,7.16-2.8,10.96c1.496,2.52,4.152,3.92,6.888,3.92c1.392,0,2.792-0.36,4.08-1.128
				c19.016-11.296,30.84-32.744,30.84-55.96C480,180.704,453.088,151.992,420,151.992z"/>
			<path d="M424,264h-13.536l9.736-10.584c2.992-3.248,2.776-8.312-0.48-11.304c-3.248-2.984-8.304-2.776-11.304,0.472L388.728,264
				h-7.235c-0.953-4.671-2.777-9.025-5.281-12.9l29.348-29.348c3.128-3.128,3.128-8.184,0-11.312s-8.184-3.128-11.312,0
				L364.9,239.788c-3.875-2.505-8.23-4.328-12.9-5.281v-7.179l21.936-21.864c3.128-3.12,3.144-8.184,0.016-11.32
				c-3.12-3.128-8.176-3.144-11.312-0.016l-10.64,10.6V192c0-4.416-3.576-8-8-8s-8,3.584-8,8v12.712l-10.6-10.576
				c-3.112-3.128-8.184-3.128-11.312,0.008c-3.12,3.128-3.12,8.192,0.016,11.312L336,227.312v7.389
				c-4.554,1.04-8.8,2.897-12.568,5.419l-29.68-29.68c-3.128-3.128-8.184-3.128-11.312,0c-3.128,3.128-3.128,8.184,0,11.312
				l29.866,29.866c-2.335,3.744-4.04,7.92-4.951,12.382H298.6l-20.568-21.528c-3.048-3.184-8.112-3.32-11.304-0.256
				c-3.192,3.056-3.312,8.12-0.256,11.312L276.48,264H264c-0.416,0-0.82,0.041-1.219,0.102L173.552,264c-0.016,0-0.032,0-0.04,0
				c-4.4,0-7.976,3.048-8,7.456c-0.024,4.416,3.544,7.512,7.96,7.536l87.885,0.552c0.828,0.29,1.715,0.456,2.643,0.456h12.464
				l-11.04,10.992c-3.136,3.12-3.152,8.176-0.032,11.312c1.56,1.568,3.616,2.352,5.672,2.352c2.04,0,4.088-0.776,5.64-2.336
				L299.128,280h8.422c0.993,4.346,2.735,8.407,5.086,12.044l-30.204,30.204c-3.128,3.128-3.128,8.184,0,11.312
				c1.56,1.56,3.608,2.344,5.656,2.344c2.048,0,4.096-0.784,5.656-2.344l30.208-30.203c3.638,2.351,7.7,4.092,12.048,5.085v8.037
				l-21.896,21.856c-3.136,3.12-3.136,8.184-0.016,11.312c1.56,1.568,3.616,2.352,5.664,2.352c2.048,0,4.096-0.784,5.648-2.336
				L336,339.08V352c0,4.416,3.576,8,8,8s8-3.584,8-8v-12.936l10.64,10.608c3.144,3.128,8.2,3.104,11.312-0.016
				c3.128-3.128,3.112-8.192-0.016-11.32L352,316.472v-7.835c4.461-0.911,8.634-2.614,12.377-4.948l29.871,29.871
				c1.56,1.56,3.608,2.344,5.656,2.344c2.048,0,4.096-0.784,5.656-2.344c3.128-3.128,3.128-8.184,0-11.312l-29.685-29.685
				c2.522-3.766,4.379-8.011,5.421-12.563h7.496l20.888,22.152c1.576,1.664,3.696,2.512,5.824,2.512c1.968,0,3.944-0.72,5.496-2.176
				c3.208-3.032,3.36-8.096,0.328-11.312L410.784,280H424c4.424,0,8-3.584,8-8C432,267.584,428.424,264,424,264z"/>
			<path d="M176,384h-13.528l9.736-10.584c2.992-3.248,2.784-8.312-0.472-11.304c-3.248-3-8.328-2.784-11.304,0.472L140.736,384
				h-7.243c-0.953-4.67-2.777-9.024-5.282-12.899l29.349-29.349c3.128-3.128,3.128-8.184,0-11.312
				c-3.128-3.128-8.184-3.128-11.312,0l-29.349,29.349c-3.875-2.505-8.229-4.329-12.899-5.282v-7.179l21.944-21.864
				c3.128-3.12,3.136-8.184,0.016-11.32c-3.12-3.128-8.184-3.136-11.32-0.016L104,324.736V312c0-4.416-3.584-8-8-8s-8,3.584-8,8
				v12.712l-10.6-10.584c-3.128-3.136-8.192-3.128-11.312,0.008c-3.128,3.128-3.12,8.192,0.008,11.312L88,347.32v7.382
				c-4.553,1.041-8.798,2.898-12.565,5.421L45.752,330.44c-3.128-3.128-8.184-3.128-11.312,0s-3.128,8.184,0,11.312l29.87,29.87
				c-2.333,3.743-4.037,7.917-4.947,12.378h-8.755L30.04,362.472c-3.064-3.2-8.12-3.32-11.312-0.256
				c-3.192,3.056-3.312,8.12-0.256,11.312l10,10.472H16c-4.416,0-8,3.584-8,8c0,4.416,3.584,8,8,8h12.456l-11.04,10.992
				c-3.136,3.12-3.144,8.176-0.024,11.312c1.56,1.568,3.616,2.352,5.664,2.352c2.04,0,4.08-0.776,5.648-2.336L51.136,400h8.422
				c0.993,4.347,2.735,8.408,5.085,12.045L34.44,442.248c-3.128,3.128-3.128,8.184,0,11.312c1.56,1.56,3.608,2.344,5.656,2.344
				s4.096-0.784,5.656-2.344l30.203-30.203c3.637,2.351,7.699,4.092,12.045,5.085v8.029l-21.904,21.864
				c-3.128,3.12-3.136,8.184-0.008,11.312c1.568,1.568,3.608,2.352,5.664,2.352c2.048,0,4.088-0.784,5.656-2.336L88,459.08V472
				c0,4.416,3.584,8,8,8s8-3.584,8-8v-12.944l10.648,10.608c3.128,3.112,8.192,3.096,11.32-0.016
				c3.12-3.136,3.112-8.192-0.016-11.32L104,436.472v-7.835c4.459-0.91,8.631-2.613,12.372-4.945l29.876,29.876
				c1.56,1.56,3.608,2.344,5.656,2.344c2.048,0,4.096-0.784,5.656-2.344c3.128-3.128,3.128-8.184,0-11.312l-29.686-29.691
				c2.523-3.767,4.38-8.011,5.422-12.565h7.496l20.888,22.152c1.576,1.664,3.696,2.512,5.824,2.512c1.968,0,3.944-0.72,5.488-2.176
				c3.216-3.032,3.36-8.096,0.336-11.312L162.784,400H176c4.416,0,8-3.584,8-8C184,387.584,180.416,384,176,384z"/>
		</g>
	</g>
</g>
<g>
</g>
<g>
</g>
<g>
</g>
<g>
</g>
<g>
</g>
<g>
</g>
<g>
</g>
<g>
</g>
<g>
</g>
<g>
</g>
<g>
</g>
<g>
</g>
<g>
</g>
<g>
</g>
<g>
</g>
</svg>
