<?xml version="1.0" encoding="iso-8859-1"?>
<!-- Generator: Adobe Illustrator 19.0.0, SVG Export Plug-In . SVG Version: 6.00 Build 0)  -->
<svg version="1.1" id="Layer_1" xmlns="http://www.w3.org/2000/svg" xmlns:xlink="http://www.w3.org/1999/xlink" x="0px" y="0px"
	 viewBox="0 0 480.016 480.016" style="enable-background:new 0 0 480.016 480.016;" xml:space="preserve">
<g>
	<g>
		<g>
			<path d="M293.296,42.368c1.864,0,3.728-0.64,5.24-1.952c3.728-3.224,7.72-6.208,11.88-8.856c3.72-2.376,4.816-7.32,2.44-11.048
				c-2.376-3.72-7.312-4.832-11.048-2.44c-4.808,3.064-9.432,6.512-13.744,10.248c-3.344,2.888-3.704,7.944-0.816,11.28
				C288.824,41.432,291.064,42.368,293.296,42.368z"/>
			<path d="M293.736,208.296c1.448,1.112,3.152,1.64,4.84,1.64c2.416,0,4.8-1.088,6.368-3.152c2.68-3.512,2.008-8.536-1.504-11.208
				C278.376,176.472,264,147.472,264.008,116c0-18.888,5.288-37.28,15.304-53.192c2.352-3.736,1.232-8.672-2.512-11.032
				c-3.736-2.328-8.672-1.232-11.032,2.512c-11.616,18.464-17.76,39.808-17.76,61.712C248,152.496,264.664,186.152,293.736,208.296z
				"/>
			<path d="M323.736,224.824c5.36,1.976,10.92,3.576,16.512,4.744c0.544,0.112,1.104,0.168,1.64,0.168
				c3.712,0,7.032-2.592,7.816-6.36c0.912-4.32-1.864-8.568-6.192-9.464c-4.808-1.008-9.6-2.392-14.232-4.104
				c-4.12-1.512-8.752,0.592-10.28,4.736C317.472,218.688,319.592,223.296,323.736,224.824z"/>
			<path d="M337.368,19.584c8.64-2.384,17.6-3.584,26.64-3.584c41.432,0,79.056,26.04,93.64,64.808
				c1.208,3.2,4.256,5.176,7.488,5.176c0.936,0,1.888-0.16,2.816-0.512c4.136-1.552,6.224-6.16,4.664-10.304
				C455.704,30.208,412.064,0,364.008,0c-10.48,0-20.864,1.4-30.888,4.168c-4.256,1.168-6.752,5.576-5.584,9.832
				C328.704,18.256,333.096,20.744,337.368,19.584z"/>
			<path d="M463.816,109.648c0.128,2.104,0.192,4.216,0.192,6.352c0,52.168-39.128,94.992-91.016,99.6
				c-4.4,0.392-7.648,4.272-7.256,8.68c0.368,4.152,3.856,7.288,7.96,7.288c0.232,0,0.48-0.008,0.72-0.032
				c60.192-5.352,105.592-55.024,105.592-115.536c0-2.464-0.08-4.904-0.216-7.336c-0.28-4.408-4.08-7.656-8.48-7.496
				C466.896,101.448,463.544,105.24,463.816,109.648z"/>
			<path d="M16.008,336c0-24.28,6.984-47.648,20.2-67.576c2.448-3.68,1.44-8.648-2.24-11.088c-3.688-2.464-8.648-1.448-11.088,2.24
				C7.912,282.136,0.008,308.56,0.008,336c0,30.272,9.536,58.936,27.584,82.904c1.568,2.08,3.968,3.184,6.4,3.184
				c1.672,0,3.368-0.528,4.808-1.616c3.528-2.656,4.232-7.672,1.576-11.2C24.44,388.112,16.008,362.776,16.008,336z"/>
			<path d="M217.88,225.392c-4.704-3.192-9.616-6.12-14.6-8.672c-3.928-2.024-8.752-0.464-10.768,3.472
				c-2.016,3.936-0.464,8.752,3.472,10.768c4.4,2.256,8.728,4.84,12.896,7.672c1.376,0.936,2.952,1.384,4.496,1.384
				c2.56,0,5.08-1.224,6.624-3.504C222.48,232.856,221.536,227.88,217.88,225.392z"/>
			<path d="M154.76,202.248c-1.92-0.208-3.84-0.36-5.784-0.48c-4.376-0.192-8.208,3.088-8.464,7.504
				c-0.272,4.408,3.088,8.2,7.504,8.464c1.712,0.104,3.4,0.248,5.08,0.416c0.28,0.032,0.56,0.048,0.832,0.048
				c4.048,0,7.528-3.048,7.96-7.168C162.344,206.64,159.16,202.704,154.76,202.248z"/>
			<path d="M287.888,463.384l-153.968-0.728c-1.912-0.144-3.816-0.304-5.688-0.52c-4.432-0.528-8.376,2.656-8.88,7.048
				c-0.512,4.392,2.624,8.448,7.008,8.96c2.104,0.256,4.24,0.608,6.936,0.784L287.808,480c0.016,0,0.024,0,0.04,0
				c4.4,0,7.984-3.864,8-8.272C295.872,467.312,292.312,463.408,287.888,463.384z"/>
			<path d="M404,368c0-4.424-3.576-8-8-8h-16.056c-4.424,0-8,3.576-8,8s3.576,8,8,8H396C400.424,376,404,372.424,404,368z"/>
			<path d="M378.12,329.272c4.216-1.312,6.576-5.8,5.264-10.016c-10.456-33.648-37.032-58.976-69.376-66.104
				c-22.528-4.976-44.44-3.152-62.936,5.176c-2.584-1.296-5.768-1.176-8.272,0.624c-3.592,2.568-4.424,7.568-1.856,11.16
				c0.576,0.816,1.144,1.64,1.696,2.472c2.288,3.416,6.808,4.552,10.448,2.584c16.344-8.808,36.408-11.04,57.496-6.392
				c26.728,5.888,48.776,27.056,57.528,55.224c1.064,3.432,4.224,5.624,7.64,5.624C376.528,329.624,377.336,329.504,378.12,329.272z
				"/>
			<path d="M352.088,463.888l-16.072,0.12c-0.008,0-0.024,0-0.032,0c-4.408,0-7.984,3.44-8,7.848
				c-0.016,4.408,3.544,7.896,7.968,7.912l16.04,0.232c0.016,0,0.032,0,0.048,0c4.4,0,7.976-3.608,8-8.008
				C360.064,467.576,356.512,463.912,352.088,463.888z"/>
			<path d="M85.424,448.952c-4.392-2.328-8.672-4.96-12.728-7.832c-3.632-2.56-8.608-1.696-11.16,1.904
				c-2.56,3.616-1.696,8.608,1.904,11.16c4.624,3.264,9.496,6.264,14.496,8.912c1.192,0.632,2.472,0.928,3.736,0.928
				c2.864,0,5.64-1.544,7.08-4.256C90.824,455.864,89.328,451.024,85.424,448.952z"/>
			<path d="M446.752,365.872c-4.024-1.888-8.768-0.168-10.656,3.816c-1.88,3.992-0.176,8.768,3.816,10.656
				c15.088,7.136,24.096,21.968,24.096,39.672c0,25.496-18.512,44.016-44.104,44.016c-0.576,0-5.968,0-14.848-0.048L400.248,464
				c-0.016,0-0.024,0-0.04,0c-4.4,0-7.976,3.512-8,7.92c-0.024,4.416,3.536,7.976,7.96,8l4.808,0.024
				c9.592,0.048,15.216,0.072,15.032,0.072c34.2,0,60-25.8,60-60.008C480.008,395.96,467.576,375.728,446.752,365.872z"/>
			<path d="M114.072,212.392l20.472-19.944c2.184-2.12,2.96-5.304,2.024-8.192c-0.952-2.904-3.448-5.008-6.464-5.448l-28.28-4.112
				l-12.648-25.632c-2.688-5.472-11.656-5.472-14.344,0l-12.648,25.632l-28.28,4.112c-3.016,0.44-5.52,2.552-6.464,5.448
				c-0.936,2.888-0.152,6.064,2.024,8.192l20.472,19.944l-4.832,28.176c-0.52,3,0.712,6.032,3.176,7.824
				c2.464,1.792,5.752,2.032,8.424,0.608l25.304-13.296L107.312,249c1.168,0.616,2.448,0.92,3.72,0.92
				c1.656,0,3.312-0.512,4.696-1.528c2.456-1.792,3.688-4.824,3.176-7.824L114.072,212.392z M99.896,203.872
				c-1.88,1.84-2.744,4.488-2.296,7.08l2.808,16.344l-14.68-7.712c-1.168-0.616-2.44-0.92-3.72-0.92c-1.28,0-2.552,0.304-3.72,0.92
				l-14.68,7.712l2.792-16.344c0.448-2.592-0.416-5.248-2.296-7.08L52.24,192.304l16.4-2.384c2.608-0.376,4.856-2.016,6.024-4.376
				L82,170.68l7.336,14.864c1.168,2.36,3.416,4,6.024,4.376l16.4,2.384L99.896,203.872z"/>
			<path d="M168.712,104.992l4.184-2.2c3.904-2.056,5.416-6.896,3.352-10.808c-0.456-0.864-1.056-1.624-1.752-2.24l0.272-1.584
				c0.752-4.352-2.168-8.488-6.528-9.232c-4.352-0.728-8.488,2.176-9.232,6.528l-1.904,11.112c-0.52,3,0.712,6.032,3.176,7.832
				c1.4,1.008,3.048,1.52,4.704,1.52C166.256,105.92,167.536,105.616,168.712,104.992z"/>
			<path d="M157.448,64.016c3.16,3.08,8.232,3.024,11.312-0.144c3.08-3.16,3.024-8.232-0.144-11.312l-4.368-4.256l16.4-2.384
				c2.608-0.376,4.856-2.016,6.024-4.376l7.336-14.864l7.336,14.864c1.168,2.36,3.416,4,6.024,4.376l16.392,2.376l-11.864,11.568
				c-1.88,1.84-2.744,4.488-2.296,7.08l2.808,16.344l-11.184-5.872c-3.904-2.056-8.744-0.56-10.8,3.36
				c-2.064,3.912-0.552,8.744,3.36,10.8L219.312,105c1.168,0.616,2.448,0.92,3.72,0.92c1.656,0,3.312-0.512,4.704-1.528
				c2.456-1.792,3.688-4.824,3.176-7.824l-4.832-28.176l20.472-19.944c2.184-2.12,2.96-5.304,2.024-8.192
				c-0.952-2.904-3.448-5.008-6.464-5.448l-28.28-4.112L201.184,5.064c-2.688-5.472-11.656-5.472-14.344,0l-12.648,25.632
				l-28.28,4.112c-3.016,0.44-5.52,2.552-6.464,5.448c-0.936,2.888-0.152,6.064,2.024,8.192L157.448,64.016z"/>
		</g>
	</g>
</g>
<g>
</g>
<g>
</g>
<g>
</g>
<g>
</g>
<g>
</g>
<g>
</g>
<g>
</g>
<g>
</g>
<g>
</g>
<g>
</g>
<g>
</g>
<g>
</g>
<g>
</g>
<g>
</g>
<g>
</g>
</svg>
