<?xml version="1.0" encoding="iso-8859-1"?>
<!-- Generator: Adobe Illustrator 19.0.0, SVG Export Plug-In . SVG Version: 6.00 Build 0)  -->
<svg version="1.1" id="Layer_1" xmlns="http://www.w3.org/2000/svg" xmlns:xlink="http://www.w3.org/1999/xlink" x="0px" y="0px"
	 viewBox="0 0 480 480" style="enable-background:new 0 0 480 480;" xml:space="preserve">
<g>
	<g>
		<g>
			<path d="M8,288c-4.416,0-8,3.576-8,8v24c0,4.424,3.584,8,8,8s8-3.576,8-8v-24C16,291.576,12.416,288,8,288z"/>
			<path d="M56,368c-4.416,0-8,3.576-8,8v24c0,4.424,3.584,8,8,8s8-3.576,8-8v-24C64,371.576,60.416,368,56,368z"/>
			<path d="M104,272c-4.416,0-8,3.576-8,8v24c0,4.424,3.584,8,8,8s8-3.576,8-8v-24C112,275.576,108.416,272,104,272z"/>
			<path d="M136,416c-4.416,0-8,3.576-8,8v24c0,4.424,3.584,8,8,8s8-3.576,8-8v-24C144,419.576,140.416,416,136,416z"/>
			<path d="M192,352v-24c0-4.424-3.584-8-8-8s-8,3.576-8,8v24c0,4.424,3.584,8,8,8S192,356.424,192,352z"/>
			<path d="M296,400c-4.416,0-8,3.576-8,8v24c0,4.424,3.584,8,8,8c4.416,0,8-3.576,8-8v-24C304,403.576,300.416,400,296,400z"/>
			<path d="M344,320c-4.416,0-8,3.576-8,8v24c0,4.424,3.584,8,8,8c4.416,0,8-3.576,8-8v-24C352,323.576,348.416,320,344,320z"/>
			<path d="M392,416c-4.416,0-8,3.576-8,8v24c0,4.424,3.584,8,8,8c4.416,0,8-3.576,8-8v-24C400,419.576,396.416,416,392,416z"/>
			<path d="M424,272c-4.416,0-8,3.576-8,8v24c0,4.424,3.584,8,8,8c4.416,0,8-3.576,8-8v-24C432,275.576,428.416,272,424,272z"/>
			<path d="M472,368c-4.416,0-8,3.576-8,8v24c0,4.424,3.584,8,8,8c4.416,0,8-3.576,8-8v-24C480,371.576,476.416,368,472,368z"/>
			<path d="M326.072,240h-160c-4.416,0-8,3.576-8,8s3.584,8,8,8H232v192c0,8.824-7.176,16-16,16c-8.824,0-16-7.176-16-16v-15.624
				c9.696-3.56,16.664-12.8,16.664-23.712c0-13.968-11.368-25.328-25.336-25.328s-25.336,11.36-25.336,25.328
				c0,11.4,7.624,20.96,18,24.128V448c0,17.648,14.352,32,32,32s32-14.352,32-32V256h78.08c4.416,0,8-3.576,8-8
				S330.496,240,326.072,240z M191.336,418c-5.144,0-9.336-4.184-9.336-9.336c0-5.144,4.184-9.328,9.336-9.328
				s9.336,4.184,9.336,9.328C200.672,413.816,196.488,418,191.336,418z"/>
			<path d="M425.44,160.416c-4.176,1.432-6.416,5.976-4.984,10.16c6.944,20.344,10.464,41.552,10.464,63.048
				c0,1.664-0.016,4.064-0.048,6.384h-78.944c-0.128-7.52-0.512-14.88-1-22.176c0-0.144,0.064-0.264,0.056-0.408
				c-0.144-2.16-0.376-4.248-0.552-6.384c-0.168-2.008-0.328-4.024-0.52-6.016c-0.12-1.272-0.2-2.584-0.328-3.84
				c-0.016-0.168-0.12-0.304-0.144-0.464c-1.792-16.672-4.512-32.584-8.064-47.56c-0.024-0.104,0.016-0.208-0.008-0.312
				c-0.168-0.712-0.376-1.368-0.552-2.072c-0.928-3.792-1.92-7.504-2.952-11.168c-0.064-0.232-0.128-0.464-0.192-0.688
				c-12.184-42.848-31.376-76.616-54.792-95.448c22.912,5.528,44.736,15.432,64.52,29.4c3.616,2.528,8.6,1.68,11.152-1.92
				c2.544-3.616,1.688-8.6-1.92-11.16C324.288,36.96,286.888,24.296,248,22.616V8c0-4.424-3.584-8-8-8c-4.416,0-8,3.576-8,8v14.456
				c-111.216,3.88-200.528,96.992-200.528,210.968c0,17.344,0,22.576,8.328,22.576h103.4c4.416,0,8-3.576,8-8
				c0-8.808,0.272-17.472,0.744-25.992c0.104-1.872,0.208-3.768,0.328-5.672c1.312-19.328,3.808-37.784,7.304-54.968
				c0.024-0.096,0.088-0.176,0.112-0.272c14.464-69.112,45.984-114.072,80.088-114.536c36.712,0.472,69.576,42.4,85.872,109.44
				c3.728,15.632,6.552,32.376,8.288,49.952c0.336,3.4,0.64,6.824,0.896,10.304C335.592,226.6,336,237.2,336,248
				c0,4.424,3.584,8,8,8h94.6c8.328,0,8.328-5.184,8.328-22.384c-0.008-23.256-3.816-46.208-11.328-68.216
				C434.176,161.232,429.64,159,425.44,160.416z M136.392,214.144c-0.032,0.488-0.064,0.976-0.096,1.464
				c-0.512,8-0.904,16.096-1.032,24.392H47.528c-0.032-2.384-0.056-4.864-0.056-6.576c0-93.944,65.56-172.6,152.552-191.056
				C165.96,70.6,141.768,134.304,136.392,214.144z"/>
			<path d="M404,149.336c22.544,0,33.504-12.432,33.496-38c0-27.6-25.832-64.992-26.936-66.568c-2.992-4.296-10.136-4.296-13.128,0
				c-1.104,1.576-26.936,38.968-26.936,66.568C370.496,136.904,381.456,149.336,404,149.336z M404,64.264
				c7.712,13.104,17.504,32.976,17.504,47.072c0,20.424-7.256,22-17.504,22s-17.504-1.576-17.504-22
				C386.496,97.272,396.288,77.384,404,64.264z"/>
		</g>
	</g>
</g>
<g>
</g>
<g>
</g>
<g>
</g>
<g>
</g>
<g>
</g>
<g>
</g>
<g>
</g>
<g>
</g>
<g>
</g>
<g>
</g>
<g>
</g>
<g>
</g>
<g>
</g>
<g>
</g>
<g>
</g>
</svg>
