<?xml version="1.0" encoding="iso-8859-1"?>
<!-- Generator: Adobe Illustrator 19.0.0, SVG Export Plug-In . SVG Version: 6.00 Build 0)  -->
<svg version="1.1" id="Layer_1" xmlns="http://www.w3.org/2000/svg" xmlns:xlink="http://www.w3.org/1999/xlink" x="0px" y="0px"
	 viewBox="0 0 482.008 482.008" style="enable-background:new 0 0 482.008 482.008;" xml:space="preserve">
<g>
	<g>
		<g>
			<path d="M252.204,60.104c1.472,1.176,3.224,1.736,4.968,1.736c2.352,0,4.688-1.04,6.288-3.016
				C285.052,31.608,317.332,16,352.02,16c16.104,0,31.664,3.312,46.224,9.848c4.04,1.808,8.76,0.008,10.568-4.024
				c1.808-4.024,0.008-8.752-4.024-10.568C388.156,3.792,370.396,0,352.012,0c-39.6,0-76.448,17.808-101.096,48.864
				C248.164,52.32,248.74,57.36,252.204,60.104z"/>
			<path d="M465.004,129c0,17.304-3.808,33.912-11.32,49.336c-1.928,3.976-0.272,8.768,3.696,10.696
				c1.128,0.552,2.328,0.808,3.496,0.808c2.968,0,5.824-1.656,7.208-4.496c8.568-17.632,12.92-36.592,12.92-56.344
				c0-21.096-5.208-42.032-15.056-60.552c-2.072-3.896-6.936-5.376-10.824-3.304c-3.896,2.08-5.384,6.928-3.304,10.824
				C460.444,92.176,465.004,110.512,465.004,129z"/>
			<path d="M423.564,41.544c3.832,3.144,7.504,6.584,10.912,10.216c1.576,1.672,3.696,2.52,5.832,2.52c1.96,0,3.928-0.72,5.48-2.168
				c3.216-3.024,3.384-8.088,0.36-11.304c-3.888-4.136-8.072-8.056-12.448-11.64c-3.416-2.8-8.448-2.296-11.256,1.12
				C419.652,33.704,420.14,38.736,423.564,41.544z"/>
			<path d="M62.588,421.76c-3.84-2.168-8.728-0.832-10.904,3.016c-2.968,5.232-5.256,10.848-6.8,16.68
				c-1.128,4.264,1.424,8.648,5.696,9.776c0.68,0.176,1.368,0.264,2.048,0.264c3.536,0,6.784-2.368,7.728-5.96
				c1.184-4.496,2.952-8.824,5.248-12.864C67.788,428.832,66.436,423.952,62.588,421.76z"/>
			<path d="M183.188,406.128l-20.824,5.576c-17.2-18.136-43.944-26.2-68.352-19.648c-6.056,1.616-11.848,4.048-17.24,7.208
				c-3.816,2.232-5.088,7.144-2.848,10.944c2.232,3.816,7.16,5.096,10.944,2.848c4.16-2.44,8.624-4.304,13.296-5.552
				c15.832-4.264,32.936-0.512,45.856,9.112l-54.672,14.648c-4.264,1.144-6.8,5.528-5.656,9.8c0.952,3.576,4.184,5.928,7.72,5.928
				c0.688,0,1.384-0.088,2.08-0.272l55.784-14.944c-6.032,15.712-19.192,27.92-35.936,32.408
				c-13.192,3.544-27.456,1.824-39.416-4.744c-3.872-2.136-8.744-0.704-10.856,3.168c-2.128,3.872-0.704,8.736,3.168,10.856
				c10.192,5.592,21.704,8.544,33.272,8.544c6.048,0,12.096-0.808,17.976-2.384c25.368-6.8,44.336-27.232,49.712-52.664
				l20.128-5.392c4.272-1.128,6.808-5.52,5.664-9.784C191.844,407.512,187.46,404.968,183.188,406.128z"/>
			<path d="M370.548,411.44c-11.96,6.56-26.2,8.296-39.408,4.744c-16.736-4.488-29.896-16.688-35.928-32.408l55.784,14.944
				c0.696,0.184,1.392,0.272,2.08,0.272c3.528,0,6.768-2.36,7.72-5.928c1.144-4.264-1.392-8.656-5.656-9.8l-54.68-14.648
				c12.912-9.616,30-13.36,45.856-9.112c4.68,1.256,9.152,3.128,13.272,5.552c3.8,2.232,8.704,0.976,10.952-2.832
				c2.24-3.808,0.976-8.712-2.832-10.952c-5.368-3.168-11.176-5.6-17.248-7.224c-24.424-6.544-51.152,1.512-68.352,19.648
				l-20.824-5.576c-4.24-1.144-8.656,1.4-9.8,5.656c-1.144,4.264,1.392,8.656,5.656,9.8l20.136,5.392
				c5.384,25.424,24.344,45.864,49.704,52.664c5.872,1.576,11.928,2.384,17.976,2.384c11.56,0,23.072-2.952,33.264-8.544
				c3.872-2.128,5.296-6.984,3.168-10.856C379.26,410.744,374.42,409.304,370.548,411.44z"/>
			<path d="M392.804,376.784c-2.184-3.84-7.08-5.184-10.904-3.016c-3.84,2.184-5.192,7.072-3.016,10.904
				c2.296,4.048,4.064,8.376,5.248,12.864c0.944,3.592,4.184,5.96,7.728,5.96c0.68,0,1.368-0.088,2.048-0.264
				c4.272-1.12,6.824-5.504,5.696-9.768C398.068,387.632,395.772,382.016,392.804,376.784z"/>
			<path d="M278.828,95.392c-5.792,0.792-11.504,2.112-17,3.936c-4.192,1.384-6.472,5.92-5.08,10.112
				c1.104,3.36,4.232,5.488,7.592,5.488c0.832,0,1.68-0.136,2.52-0.416c4.568-1.504,9.32-2.608,14.144-3.264
				c4.368-0.6,7.432-4.64,6.84-9.016C287.236,97.864,283.22,94.824,278.828,95.392z"/>
			<path d="M166.492,316.696c-0.024,4.416,3.536,8.12,7.96,8.144l160.44,1c0.016,0,0.024,0,0.04,0c4.4,0,7.976-3.76,8-8.16
				c0.024-4.424-3.544-8.216-7.96-8.24l-160.44-0.76C170.012,308.696,166.524,312.272,166.492,316.696z"/>
			<path d="M399.196,309.832l-16.072,0.008c-0.008,0-0.024,0-0.04,0c-4.4,0-7.976,3.488-8,7.896
				c-0.024,4.416,3.536,7.952,7.96,7.976l16.072,0.128c0.016,0,0.024,0,0.04,0c4.392,0,7.976-3.56,8-7.96
				C407.18,313.464,403.62,309.856,399.196,309.832z"/>
			<path d="M82.828,73.6c15.712-7.808,32.6-11.76,50.176-11.76c4.624,0,9.512,0.376,15.992,1.24
				c27.528,1.688,54.008,12.776,74.568,31.24c1.52,1.376,3.44,2.048,5.344,2.048c2.192,0,4.376-0.896,5.952-2.656
				c2.952-3.288,2.68-8.344-0.608-11.296c-23.232-20.856-53.168-33.4-83.68-35.24c-6.616-0.912-12.2-1.336-17.568-1.336
				c-20.064,0-39.344,4.512-57.288,13.432c-3.96,1.96-5.576,6.768-3.608,10.72C74.076,73.952,78.876,75.576,82.828,73.6z"/>
			<path d="M62.692,298.696c1.432,1.048,3.088,1.544,4.728,1.544c2.456,0,4.888-1.136,6.456-3.272
				c2.608-3.56,1.84-8.568-1.72-11.184c-6.456-4.728-12.48-10.184-18.304-16.608c-23.76-22.984-36.848-54.048-36.848-87.456
				c0.008-9.544,1.08-19.008,3.208-28.144c1.008-4.304-1.672-8.6-5.976-9.6c-4.288-1.064-8.6,1.672-9.6,5.976
				c-2.408,10.312-3.624,21-3.632,31.76c0,37.792,14.824,72.936,41.352,98.576C48.524,287.136,55.372,293.32,62.692,298.696z"/>
			<path d="M421.004,197.824H388.66c0.208-2.088,0.328-3.872,0.336-6.536c0-39.824-23.128-75.008-58.928-89.624
				c-4.088-1.672-8.76,0.288-10.432,4.384s0.288,8.76,4.384,10.432c29.752,12.152,48.976,41.52,48.976,75.08
				c-0.008,2.624-0.2,4.2-0.488,6.816c-0.2,1.72-0.432,3.816-0.696,6.736c-0.2,2.248,0.552,4.464,2.064,6.12
				c1.512,1.664,3.656,2.608,5.904,2.608h41.224c24.256,0,44,21.528,44,48c-0.008,17.6-8.832,33.784-23.032,42.208
				c-3.8,2.256-5.048,7.16-2.8,10.968c1.496,2.512,4.152,3.912,6.888,3.912c1.392,0,2.792-0.36,4.08-1.136
				c19.032-11.296,30.856-32.744,30.864-55.968C481.004,226.536,454.092,197.824,421.004,197.824z"/>
			<path d="M127.308,307.664c-4.976-0.656-9.944-1.608-14.76-2.84c-4.216-1.08-8.632,1.48-9.736,5.768
				c-1.088,4.272,1.488,8.632,5.768,9.736c5.432,1.384,11.04,2.464,16.648,3.2c0.352,0.048,0.704,0.072,1.048,0.072
				c3.96,0,7.4-2.936,7.92-6.968C134.78,312.248,131.684,308.232,127.308,307.664z"/>
			<path d="M27.084,114.664c1.376,0.952,2.952,1.408,4.512,1.408c2.552,0,5.056-1.208,6.608-3.48
				c2.84-4.144,5.952-8.12,9.216-11.816c2.928-3.304,2.624-8.36-0.68-11.288c-3.304-2.928-8.36-2.64-11.288,0.68
				c-3.712,4.192-7.232,8.688-10.44,13.376C22.516,107.184,23.436,112.168,27.084,114.664z"/>
		</g>
	</g>
</g>
<g>
</g>
<g>
</g>
<g>
</g>
<g>
</g>
<g>
</g>
<g>
</g>
<g>
</g>
<g>
</g>
<g>
</g>
<g>
</g>
<g>
</g>
<g>
</g>
<g>
</g>
<g>
</g>
<g>
</g>
</svg>
