<?xml version="1.0" encoding="iso-8859-1"?>
<!-- Generator: Adobe Illustrator 19.0.0, SVG Export Plug-In . SVG Version: 6.00 Build 0)  -->
<svg version="1.1" id="Layer_1" xmlns="http://www.w3.org/2000/svg" xmlns:xlink="http://www.w3.org/1999/xlink" x="0px" y="0px"
	 viewBox="0 0 480.184 480.184" style="enable-background:new 0 0 480.184 480.184;" xml:space="preserve">
<g>
	<g>
		<g>
			<path d="M126.42,261.832c-4.984-0.656-9.944-1.608-14.752-2.84c-4.288-1.096-8.64,1.488-9.736,5.768
				c-1.096,4.272,1.48,8.632,5.76,9.736c5.432,1.384,11.032,2.464,16.648,3.2c0.352,0.048,0.704,0.072,1.048,0.072
				c3.952,0,7.392-2.936,7.928-6.968C133.884,266.416,130.796,262.4,126.42,261.832z"/>
			<path d="M263.428,69.088c0.832,0,1.68-0.136,2.52-0.416c4.568-1.504,9.32-2.608,14.144-3.264c4.368-0.6,7.432-4.64,6.84-9.016
				c-0.608-4.368-4.664-7.424-9.016-6.84c-5.792,0.792-11.504,2.112-17,3.936c-4.192,1.384-6.472,5.92-5.08,10.112
				C256.94,66.96,260.068,69.088,263.428,69.088z"/>
			<path d="M41.444,234.448c6.16,6.84,13.008,13.04,20.344,18.424c1.432,1.048,3.088,1.544,4.728,1.544
				c2.464,0,4.896-1.136,6.456-3.272c2.616-3.56,1.848-8.568-1.712-11.184c-6.464-4.736-12.496-10.192-18.312-16.624
				c-23.768-22.984-36.856-54.048-36.856-87.464c0-9.504,1.072-18.968,3.216-28.128c1-4.304-1.68-8.6-5.984-9.6
				c-4.28-1.056-8.608,1.664-9.608,5.976c-2.408,10.344-3.624,21.032-3.624,31.752C0.092,173.664,14.916,208.816,41.444,234.448z"/>
			<path d="M26.18,68.864c1.376,0.936,2.952,1.392,4.504,1.392c2.56,0,5.064-1.216,6.616-3.48c2.808-4.12,5.904-8.088,9.208-11.816
				c2.928-3.304,2.624-8.36-0.68-11.288c-3.312-2.936-8.368-2.616-11.296,0.68c-3.744,4.224-7.256,8.728-10.44,13.392
				C21.596,61.392,22.532,66.368,26.18,68.864z"/>
			<path d="M81.9,27.768C97.62,19.96,114.508,16,132.092,16c4.624,0,9.512,0.376,16,1.24c27.52,1.688,54.008,12.776,74.568,31.24
				c1.52,1.376,3.432,2.048,5.336,2.048c2.192,0,4.376-0.896,5.952-2.656c2.952-3.288,2.68-8.344-0.608-11.296
				c-23.232-20.856-53.168-33.4-83.672-35.24C143.044,0.424,137.46,0,132.092,0c-20.08,0-39.36,4.52-57.304,13.44
				c-3.96,1.968-5.576,6.768-3.608,10.728C73.14,28.12,77.932,29.736,81.9,27.768z"/>
			<path d="M382.228,263.992c-0.008,0-0.024,0-0.04,0c-4.4,0-7.976,3.488-8,7.896c-0.024,4.416,3.536,7.952,7.96,7.976L398.22,280
				c0.016,0,0.024,0,0.04,0c4.392,0,7.976-3.56,8-7.976s-3.536-8.024-7.96-8.048L382.228,263.992z"/>
			<path d="M334.004,280c0.016,0,0.024,0,0.04,0c4.4,0,7.976-3.464,8-7.864c0.024-4.424-3.544-7.928-7.96-7.952l-160.448-0.176
				c-0.016,0-0.032,0-0.04,0c-4.4,0-7.976,3.048-8,7.456c-0.024,4.424,3.544,7.512,7.96,7.536L334.004,280z"/>
			<path d="M323.108,70.64c29.752,12.152,48.976,41.52,48.976,75.08c-0.008,2.624-0.2,4.2-0.488,6.816
				c-0.2,1.72-0.432,3.816-0.696,6.736c-0.2,2.248,0.552,4.464,2.064,6.12c1.512,1.664,3.656,2.608,5.904,2.608h41.224
				c24.256,0,44,21.528,44,48c0.008,17.6-8.816,33.768-23.016,42.2c-3.8,2.256-5.048,7.16-2.8,10.968
				c1.496,2.512,4.152,3.912,6.888,3.912c1.392,0,2.792-0.36,4.08-1.136c19.032-11.304,30.856-32.744,30.848-55.96
				c0-35.288-26.912-64-60-64h-32.344c0.208-2.088,0.328-3.872,0.336-6.536c0-39.824-23.128-75.008-58.928-89.624
				c-4.096-1.664-8.76,0.288-10.432,4.384S319.012,68.968,323.108,70.64z"/>
			<path d="M186.124,451.504c-1.176-4.256-5.592-6.776-9.832-5.584c-4.256,1.168-6.76,5.576-5.584,9.832
				c1.6,5.824,3.96,11.408,7,16.616c1.488,2.544,4.168,3.96,6.912,3.96c1.368,0,2.76-0.352,4.024-1.096
				c3.816-2.224,5.104-7.128,2.872-10.944C189.172,460.28,187.356,455.984,186.124,451.504z"/>
			<path d="M261.428,346.632c-3.824-2.208-8.72-0.896-10.928,2.928l-10.776,18.664c-25.288-0.712-49.536,12.456-62.224,34.44
				c-3.152,5.448-5.536,11.272-7.104,17.32c-1.104,4.28,1.464,8.648,5.744,9.752c4.264,1.136,8.64-1.464,9.752-5.736
				c1.2-4.656,3.04-9.144,5.472-13.336c8.248-14.28,22.808-23.72,38.88-26.008l-28.32,49.048c-2.208,3.832-0.896,8.72,2.928,10.928
				c1.264,0.728,2.64,1.072,3.992,1.072c2.768,0,5.456-1.44,6.936-4l28.864-49.992c3.016,6.816,4.664,14.224,4.664,21.696
				c0,9.304-2.472,18.496-7.144,26.592c-6.896,11.936-17.984,20.64-31.216,24.504c-4.24,1.24-6.672,5.688-5.432,9.92
				c1.024,3.496,4.216,5.76,7.672,5.76c0.744,0,1.504-0.104,2.248-0.32c17.2-5.032,31.608-16.344,40.576-31.864
				c6.08-10.52,9.288-22.488,9.288-34.592c0-13.408-4-26.704-11.288-37.936l10.344-17.912
				C266.564,353.728,265.252,348.84,261.428,346.632z"/>
			<path d="M21.692,335.936c-3.832-2.176-8.72-0.832-10.904,3c-2.992,5.256-5.28,10.872-6.8,16.704
				c-1.12,4.272,1.44,8.64,5.712,9.768c0.672,0.168,1.36,0.256,2.024,0.256c3.552,0,6.792-2.384,7.736-5.976
				c1.168-4.48,2.936-8.8,5.232-12.84C26.876,343,25.532,338.12,21.692,335.936z"/>
			<path d="M142.276,320.288l-20.816,5.576c-17.216-18.144-44.048-26.192-68.344-19.648c-6.08,1.624-11.888,4.056-17.264,7.224
				c-3.808,2.24-5.072,7.152-2.832,10.952s7.152,5.072,10.952,2.832c4.128-2.432,8.592-4.304,13.28-5.552
				c15.808-4.256,32.928-0.512,45.848,9.112l-54.672,14.648c-4.272,1.144-6.8,5.528-5.656,9.8c0.96,3.576,4.184,5.928,7.72,5.928
				c0.68,0,1.384-0.088,2.072-0.272l55.792-14.944c-6.032,15.72-19.192,27.92-35.936,32.408c-13.168,3.528-27.456,1.808-39.4-4.752
				c-3.888-2.136-8.736-0.712-10.864,3.168c-2.128,3.864-0.704,8.736,3.168,10.856c10.192,5.592,21.696,8.544,33.272,8.544
				c6.056,0,12.104-0.808,17.984-2.384c25.368-6.8,44.336-27.232,49.712-52.664l20.128-5.392c4.264-1.128,6.8-5.52,5.656-9.784
				C150.932,321.672,146.548,319.112,142.276,320.288z"/>
			<path d="M471.892,378.944c-2.184-3.84-7.072-5.184-10.904-3.016c-3.84,2.184-5.192,7.072-3.016,10.904
				c2.296,4.048,4.064,8.376,5.248,12.864c0.944,3.592,4.184,5.96,7.728,5.96c0.68,0,1.368-0.088,2.048-0.264
				c4.272-1.12,6.824-5.504,5.696-9.768C477.156,389.792,474.86,384.176,471.892,378.944z"/>
			<path d="M449.636,413.6c-11.952,6.56-26.216,8.296-39.408,4.744c-16.736-4.488-29.896-16.688-35.928-32.408l55.784,14.944
				c0.696,0.184,1.392,0.272,2.08,0.272c3.528,0,6.768-2.36,7.72-5.928c1.144-4.264-1.392-8.656-5.656-9.8l-54.68-14.648
				c12.912-9.616,30-13.36,45.856-9.112c4.68,1.256,9.152,3.128,13.272,5.552c3.792,2.232,8.704,0.976,10.952-2.832
				c2.24-3.808,0.976-8.712-2.832-10.952c-5.368-3.168-11.176-5.6-17.248-7.224c-24.432-6.544-51.152,1.512-68.352,19.648
				l-20.824-5.576c-4.256-1.144-8.656,1.4-9.8,5.656c-1.144,4.264,1.392,8.656,5.656,9.8l20.136,5.392
				c5.384,25.424,24.344,45.864,49.704,52.664c5.872,1.576,11.928,2.384,17.976,2.384c11.56,0,23.072-2.952,33.264-8.544
				c3.872-2.128,5.296-6.984,3.168-10.856C458.38,412.896,453.508,411.464,449.636,413.6z"/>
		</g>
	</g>
</g>
<g>
</g>
<g>
</g>
<g>
</g>
<g>
</g>
<g>
</g>
<g>
</g>
<g>
</g>
<g>
</g>
<g>
</g>
<g>
</g>
<g>
</g>
<g>
</g>
<g>
</g>
<g>
</g>
<g>
</g>
</svg>
