<?xml version="1.0" encoding="iso-8859-1"?>
<!-- Generator: Adobe Illustrator 19.0.0, SVG Export Plug-In . SVG Version: 6.00 Build 0)  -->
<svg version="1.1" id="Layer_1" xmlns="http://www.w3.org/2000/svg" xmlns:xlink="http://www.w3.org/1999/xlink" x="0px" y="0px"
	 viewBox="0 0 480 480" style="enable-background:new 0 0 480 480;" xml:space="preserve">
<g>
	<g>
		<g>
			<path d="M138.816,18.163c2.872,0.28,5.712,0.672,9.2,1.128c2.2,0.128,4.368,0.328,6.536,0.576c0.32,0.04,0.632,0.056,0.936,0.056
				c4.008,0,7.456-3,7.944-7.072c0.512-4.384-2.632-8.36-7.016-8.872c-2.456-0.288-4.944-0.504-6.872-0.6
				c-3.032-0.424-6.096-0.84-9.192-1.144c-4.304-0.368-8.304,2.8-8.728,7.2C131.192,13.827,134.416,17.739,138.816,18.163z"/>
			<path d="M8,145.547c4.424,0,8-3.584,8-8c0-51.504,31.736-97.128,78.96-113.52c4.168-1.448,6.384-6.008,4.928-10.184
				C98.44,9.667,93.88,7.459,89.712,8.907C36.056,27.547,0,79.235,0,137.547C0,141.963,3.576,145.547,8,145.547z"/>
			<path d="M197.272,33.187c18.144,9.616,33.832,23.776,45.36,40.936c2.288,3.416,6.808,4.552,10.44,2.576
				c16.336-8.808,36.44-11.032,57.496-6.384c8.656,1.912,16.864,5.392,24.376,10.336c1.36,0.896,2.888,1.32,4.392,1.32
				c2.6,0,5.16-1.264,6.688-3.616c2.432-3.688,1.408-8.648-2.28-11.08c-9.16-6.024-19.16-10.256-29.728-12.592
				c-22.2-4.896-43.808-3.2-62.136,4.816c-12.528-16.784-28.688-30.68-47.104-40.448c-3.904-2.08-8.752-0.592-10.824,3.32
				C191.88,26.275,193.376,31.115,197.272,33.187z"/>
			<path d="M368.512,126.931c1.016,3.488,4.208,5.76,7.68,5.76c0.744,0,1.496-0.104,2.24-0.328c4.248-1.24,6.672-5.68,5.44-9.92
				c-1.616-5.552-3.728-10.992-6.248-16.168c-1.92-3.952-6.688-5.624-10.696-3.68c-3.968,1.936-5.616,6.72-3.68,10.696
				C365.368,117.651,367.144,122.243,368.512,126.931z"/>
			<path d="M420,161.547h-38.472c-4.424,0-8,3.584-8,8s3.576,8,8,8H420c25.496,0,44,18.504,44,44.008
				c0,11.968-3.976,22.512-11.48,30.512c-3.032,3.224-2.864,8.288,0.352,11.312c1.552,1.448,3.512,2.168,5.48,2.168
				c2.136,0,4.256-0.848,5.824-2.52C474.384,252.171,480,237.435,480,221.555C480,187.347,454.2,161.547,420,161.547z"/>
			<path d="M251.096,181.827c-5.768,1.048-11.44,2.664-16.872,4.816c-4.112,1.624-6.12,6.264-4.496,10.376
				c1.248,3.144,4.256,5.064,7.44,5.064c0.984,0,1.976-0.184,2.944-0.568c4.44-1.76,9.096-3.088,13.84-3.944
				c4.344-0.792,7.232-4.952,6.448-9.296C259.608,183.923,255.512,180.995,251.096,181.827z"/>
			<path d="M343.256,377.475l-16.056,0.064c-0.016,0-0.024,0-0.04,0c-4.4,0-7.976,3.464-8,7.872
				c-0.024,4.424,3.544,7.928,7.96,7.952l16.056,0.184c0.016,0,0.024,0,0.04,0c4.4,0,7.976-3.592,8-8
				C351.24,381.123,347.672,377.491,343.256,377.475z"/>
			<path d="M390.768,273.939c-1.088-0.128-2.16-0.04-3.16,0.24c-0.952-0.4-2-0.624-3.104-0.624h-28.768
				c0.12-1.192,0.192-2.36,0.2-4.2c0-42.208-28.016-77.864-68.12-86.696l-1.936-0.408c-4.392-0.856-8.536,1.976-9.392,6.312
				c-0.856,4.336,1.976,8.544,6.312,9.392l1.552,0.328c32.72,7.208,55.576,36.432,55.576,71.04c-0.008,1.856-0.12,2.688-0.304,4.112
				c-0.2,1.544-0.464,3.632-0.784,7.464c-0.176,2.224,0.584,4.432,2.096,6.072c1.512,1.64,3.648,2.576,5.88,2.576h37.672
				c0.752,0,1.48-0.104,2.176-0.296c0.664,0.28,1.376,0.472,2.128,0.568C408.528,292.251,424,311.467,424,333.563
				c0,23.848-18.088,44.008-39.504,44.008l-9.096-0.016c-0.016,0-0.024,0-0.04,0c-4.4,0-7.976,3.536-8,7.936
				c-0.024,4.416,3.544,8,7.96,8.016l9.168,0.04c30.608,0,55.512-26.92,55.512-60C440,303.019,418.832,277.387,390.768,273.939z"/>
			<path d="M35.624,172.747c-3.952,4.056-7.672,8.44-11.048,13.024c-2.616,3.552-1.848,8.56,1.704,11.184
				c1.432,1.048,3.088,1.552,4.736,1.552c2.464,0,4.88-1.128,6.456-3.256c2.936-4,6.168-7.816,9.608-11.344
				c3.08-3.16,3.024-8.232-0.144-11.312C43.792,169.523,38.704,169.579,35.624,172.747z"/>
			<path d="M64.504,354.491c-5.24-4-10.176-8.552-15.032-13.92C27.88,319.707,16,291.491,16,261.139
				c0.008-13.744,2.448-27.128,7.248-39.776c1.568-4.128-0.504-8.752-4.632-10.32c-4.136-1.544-8.752,0.512-10.32,4.64
				C2.8,230.147,0.008,245.443,0,261.131c0,34.736,13.616,67.032,37.968,90.544c5.136,5.704,10.8,10.928,16.832,15.528
				c1.44,1.104,3.152,1.64,4.84,1.64c2.416,0,4.8-1.08,6.368-3.144C68.688,362.187,68.016,357.171,64.504,354.491z"/>
			<path d="M295.12,377.715l-160.496-0.168c-0.016,0-0.024,0-0.04,0c-4.4,0-7.976,3.048-8,7.456
				c-0.024,4.424,3.536,7.512,7.96,7.536l160.496,1.008c0.016,0,0.024,0,0.04,0c4.4,0,7.976-3.472,8-7.88
				C303.104,381.251,299.536,377.738,295.12,377.715z"/>
			<path d="M104.576,373.435c-4.84-1.16-9.624-2.648-14.208-4.432c-4.152-1.624-8.768,0.432-10.36,4.552
				c-1.608,4.112,0.424,8.752,4.544,10.352c5.272,2.056,10.76,3.76,16.32,5.088c0.624,0.144,1.24,0.216,1.856,0.216
				c3.616,0,6.896-2.48,7.776-6.144C111.528,378.771,108.872,374.459,104.576,373.435z"/>
			<path d="M208.616,186.403c1.56,1.584,3.632,2.384,5.696,2.384c2.032,0,4.056-0.76,5.616-2.312
				c3.152-3.104,3.184-8.168,0.08-11.312c-22.136-22.448-51.664-35.88-82.544-37.744c-5.76-0.784-11.04-1.168-16.152-1.168
				c-20.552,0-40.856,5.392-58.72,15.584c-3.84,2.192-5.176,7.072-2.984,10.912c2.168,3.832,7.072,5.168,10.904,2.984
				c15.464-8.816,33.024-13.48,50.8-13.48c4.376,0,8.944,0.336,14.568,1.08C163.424,155.019,189.248,166.763,208.616,186.403z"/>
		</g>
	</g>
</g>
<g id="SVGCleanerId_0">
	<g>
		<path d="M162,414.371c-3.816-2.216-8.72-0.904-10.928,2.928l-28,48.496c-2.216,3.824-0.904,8.72,2.928,10.928
			c1.256,0.728,2.632,1.072,3.992,1.072c2.768,0,5.456-1.432,6.936-4l28-48.496C167.144,421.475,165.832,416.579,162,414.371z"/>
	</g>
</g>
<g id="SVGCleanerId_1">
	<g>
		<path d="M210,414.371c-3.816-2.216-8.72-0.904-10.928,2.928l-28,48.496c-2.216,3.824-0.904,8.72,2.928,10.928
			c1.256,0.728,2.632,1.072,3.992,1.072c2.768,0,5.456-1.432,6.936-4l28-48.496C215.144,421.475,213.832,416.579,210,414.371z"/>
	</g>
</g>
<g id="SVGCleanerId_2">
	<g>
		<path d="M66,414.371c-3.824-2.216-8.72-0.904-10.928,2.928l-28,48.496c-2.216,3.824-0.904,8.72,2.928,10.928
			c1.256,0.728,2.632,1.072,3.992,1.072c2.768,0,5.456-1.432,6.936-4l28-48.496C71.144,421.475,69.832,416.579,66,414.371z"/>
	</g>
</g>
<g id="SVGCleanerId_3">
	<g>
		<path d="M114,414.371c-3.816-2.216-8.72-0.904-10.928,2.928l-28,48.496c-2.216,3.824-0.904,8.72,2.928,10.928
			c1.256,0.728,2.632,1.072,3.992,1.072c2.768,0,5.456-1.432,6.936-4l28-48.496C119.144,421.475,117.832,416.579,114,414.371z"/>
	</g>
</g>
<g id="SVGCleanerId_4">
	<g>
		<path d="M258,414.371c-3.816-2.216-8.72-0.904-10.928,2.928l-28,48.496c-2.216,3.824-0.904,8.72,2.928,10.928
			c1.256,0.728,2.632,1.072,3.992,1.072c2.768,0,5.456-1.432,6.936-4l28-48.496C263.144,421.475,261.832,416.579,258,414.371z"/>
	</g>
</g>
<g id="SVGCleanerId_5">
	<g>
		<path d="M306,414.371c-3.824-2.216-8.72-0.904-10.928,2.928l-28,48.496c-2.216,3.824-0.904,8.72,2.928,10.928
			c1.256,0.728,2.632,1.072,3.992,1.072c2.768,0,5.456-1.432,6.936-4l28-48.496C311.144,421.475,309.832,416.579,306,414.371z"/>
	</g>
</g>
<g id="SVGCleanerId_6">
	<g>
		<path d="M354,414.371c-3.816-2.216-8.72-0.904-10.928,2.928l-28,48.496c-2.216,3.824-0.904,8.72,2.928,10.928
			c1.256,0.728,2.632,1.072,3.992,1.072c2.768,0,5.456-1.432,6.936-4l28-48.496C359.144,421.475,357.832,416.579,354,414.371z"/>
	</g>
</g>
<g id="SVGCleanerId_7">
	<g>
		<path d="M402,414.371c-3.824-2.216-8.72-0.904-10.928,2.928l-28,48.496c-2.216,3.824-0.904,8.72,2.928,10.928
			c1.256,0.728,2.632,1.072,3.992,1.072c2.768,0,5.456-1.432,6.936-4l28-48.496C407.144,421.475,405.832,416.579,402,414.371z"/>
	</g>
</g>
<g id="SVGCleanerId_8">
	<g>
		<path d="M450,414.371c-3.816-2.216-8.728-0.904-10.928,2.928l-28,48.496c-2.216,3.824-0.904,8.72,2.928,10.928
			c1.256,0.728,2.632,1.072,3.992,1.072c2.768,0,5.456-1.432,6.936-4l28-48.496C455.144,421.475,453.832,416.579,450,414.371z"/>
	</g>
</g>
<g>
	<g>
		<path d="M162,414.371c-3.816-2.216-8.72-0.904-10.928,2.928l-28,48.496c-2.216,3.824-0.904,8.72,2.928,10.928
			c1.256,0.728,2.632,1.072,3.992,1.072c2.768,0,5.456-1.432,6.936-4l28-48.496C167.144,421.475,165.832,416.579,162,414.371z"/>
	</g>
</g>
<g>
	<g>
		<path d="M210,414.371c-3.816-2.216-8.72-0.904-10.928,2.928l-28,48.496c-2.216,3.824-0.904,8.72,2.928,10.928
			c1.256,0.728,2.632,1.072,3.992,1.072c2.768,0,5.456-1.432,6.936-4l28-48.496C215.144,421.475,213.832,416.579,210,414.371z"/>
	</g>
</g>
<g>
	<g>
		<path d="M66,414.371c-3.824-2.216-8.72-0.904-10.928,2.928l-28,48.496c-2.216,3.824-0.904,8.72,2.928,10.928
			c1.256,0.728,2.632,1.072,3.992,1.072c2.768,0,5.456-1.432,6.936-4l28-48.496C71.144,421.475,69.832,416.579,66,414.371z"/>
	</g>
</g>
<g>
	<g>
		<path d="M114,414.371c-3.816-2.216-8.72-0.904-10.928,2.928l-28,48.496c-2.216,3.824-0.904,8.72,2.928,10.928
			c1.256,0.728,2.632,1.072,3.992,1.072c2.768,0,5.456-1.432,6.936-4l28-48.496C119.144,421.475,117.832,416.579,114,414.371z"/>
	</g>
</g>
<g>
	<g>
		<path d="M258,414.371c-3.816-2.216-8.72-0.904-10.928,2.928l-28,48.496c-2.216,3.824-0.904,8.72,2.928,10.928
			c1.256,0.728,2.632,1.072,3.992,1.072c2.768,0,5.456-1.432,6.936-4l28-48.496C263.144,421.475,261.832,416.579,258,414.371z"/>
	</g>
</g>
<g>
	<g>
		<path d="M306,414.371c-3.824-2.216-8.72-0.904-10.928,2.928l-28,48.496c-2.216,3.824-0.904,8.72,2.928,10.928
			c1.256,0.728,2.632,1.072,3.992,1.072c2.768,0,5.456-1.432,6.936-4l28-48.496C311.144,421.475,309.832,416.579,306,414.371z"/>
	</g>
</g>
<g>
	<g>
		<path d="M354,414.371c-3.816-2.216-8.72-0.904-10.928,2.928l-28,48.496c-2.216,3.824-0.904,8.72,2.928,10.928
			c1.256,0.728,2.632,1.072,3.992,1.072c2.768,0,5.456-1.432,6.936-4l28-48.496C359.144,421.475,357.832,416.579,354,414.371z"/>
	</g>
</g>
<g>
	<g>
		<path d="M402,414.371c-3.824-2.216-8.72-0.904-10.928,2.928l-28,48.496c-2.216,3.824-0.904,8.72,2.928,10.928
			c1.256,0.728,2.632,1.072,3.992,1.072c2.768,0,5.456-1.432,6.936-4l28-48.496C407.144,421.475,405.832,416.579,402,414.371z"/>
	</g>
</g>
<g>
	<g>
		<path d="M450,414.371c-3.816-2.216-8.728-0.904-10.928,2.928l-28,48.496c-2.216,3.824-0.904,8.72,2.928,10.928
			c1.256,0.728,2.632,1.072,3.992,1.072c2.768,0,5.456-1.432,6.936-4l28-48.496C455.144,421.475,453.832,416.579,450,414.371z"/>
	</g>
</g>
<g>
</g>
<g>
</g>
<g>
</g>
<g>
</g>
<g>
</g>
<g>
</g>
<g>
</g>
<g>
</g>
<g>
</g>
<g>
</g>
<g>
</g>
<g>
</g>
<g>
</g>
<g>
</g>
<g>
</g>
</svg>
