<?xml version="1.0" encoding="iso-8859-1"?>
<!-- Generator: Adobe Illustrator 19.0.0, SVG Export Plug-In . SVG Version: 6.00 Build 0)  -->
<svg version="1.1" id="Layer_1" xmlns="http://www.w3.org/2000/svg" xmlns:xlink="http://www.w3.org/1999/xlink" x="0px" y="0px"
	 viewBox="0 0 481.3 481.3" style="enable-background:new 0 0 481.3 481.3;" xml:space="preserve">
<g>
	<g>
		<g>
			<path d="M64.25,128.5c4.4,0,8-3.6,8.1-7.9V56.1c0-22.1,17.9-40,40-40c5.7,0,11.1,1.1,16.2,3.4c4.1,1.8,8.8-0.1,10.6-4.1
				c1.8-4.1-0.1-8.8-4.1-10.6c-7.2-3.2-14.8-4.8-22.7-4.8c-0.1,0-0.1,0-0.1,0c-30.9,0-56,25.1-56,56v64.5
				C56.25,124.9,59.85,128.5,64.25,128.5z"/>
			<path d="M64.25,192.5c4.4,0,8-3.6,8-8v-16c0-4.4-3.6-8-8-8s-8,3.6-8,8v16C56.25,188.9,59.85,192.5,64.25,192.5z"/>
			<path d="M152.25,56v8.6c0,4.4,3.6,8,8,8c4.4,0,8-3.6,7.9-7.9v-8.6c0-2.9-0.2-5.8-0.6-8.6c-0.7-4.4-4.7-7.4-9.1-6.7
				c-4.4,0.7-7.4,4.7-6.7,9.1C152.05,51.9,152.25,54,152.25,56z"/>
			<path d="M160.25,104.7c-4.4,0-8,3.6-8,8v160c0,3.1,1.7,5.9,4.5,7.2c17.4,8.4,31.9,21.6,41.8,38.2c1.5,2.5,4.2,3.9,6.9,3.9
				c1.4,0,2.9-0.4,4.1-1c3.8-2.3,5.1-7.2,2.8-11c-10.6-17.9-25.8-32.4-44.1-42.2V112.7C168.25,108.3,164.65,104.7,160.25,104.7z"/>
			<path d="M28.75,414.1c-2.1-3.9-6.9-5.3-10.8-3.2c-3.9,2.1-5.3,6.9-3.2,10.8c2.7,5,5.8,9.8,9.3,14.4c1.6,2.1,4,3.2,6.4,3.2
				c1.7,0,3.4-0.5,4.7-1.6c3.6-2.7,4.3-7.7,1.6-11.2C33.75,422.6,31.05,418.4,28.75,414.1z"/>
			<path d="M227.75,358.8c-0.3-4.5-4.2-7.7-8.6-7.4c-4.4,0.3-7.6,4.2-7.3,8.6c0.2,2.6,0.3,5.2,0.3,7.8c0,2.4,0,4.7-0.2,7
				c-0.3,4.4,3,8.2,7.4,8.5c0.2,0,0.4,0,0.6,0c4.2,0,7.7-3.2,7.9-7.3c0.2-2.7,0.3-5.4,0.3-8.1
				C228.15,364.8,227.95,361.8,227.75,358.8z"/>
			<path d="M209.95,413.7c-3.8-2.2-8.7-0.9-10.9,2.9c-19.3,33.2-56.8,52.2-95.6,48c-11.5-1.2-22.6-4.6-33-9.9c-4-2-8.8-0.4-10.8,3.5
				c-2,4-0.4,8.8,3.5,10.8c12.2,6.2,25.2,10.1,38.6,11.6c4.3,0.5,8.6,0.7,12.9,0.7c40.3,0,78-21.6,98.2-56.7
				C215.05,420.8,213.75,415.9,209.95,413.7z"/>
			<path d="M72.25,275v-42.4c0-4.4-3.6-8-8-8s-8,3.6-8,8v37.8c-34.2,20.5-55.2,56.4-55.2,96.4c0,1.5,0,2,0.1,3.5
				c0.2,4.3,3.7,5.7,8,5.7c0.1,0,0.2,0,0.3,0c4.4,0,7.9-1.9,7.7-6.3c-0.1-1.3-0.1-0.6-0.1-1.9c0-35.8,19.5-68.7,51-85.8
				C70.65,280.6,72.25,277.9,72.25,275z"/>
		</g>
	</g>
</g>
<g>
	<g>
		<path d="M128.25,56h-32c-4.4,0-8,3.6-8,8s3.6,8,8,8h32c4.4,0,8-3.6,8-8S132.65,56,128.25,56z"/>
	</g>
</g>
<g>
	<g>
		<path d="M128.25,104h-32c-4.4,0-8,3.6-8,8c0,4.4,3.6,8,8,8h32c4.4,0,8-3.6,8-8C136.25,107.6,132.65,104,128.25,104z"/>
	</g>
</g>
<g>
	<g>
		<path d="M128.25,152h-32c-4.4,0-8,3.6-8,8c0,4.4,3.6,8,8,8h32c4.4,0,8-3.6,8-8C136.25,155.6,132.65,152,128.25,152z"/>
	</g>
</g>
<g>
	<g>
		<path d="M368.25,104h-13.5l9.7-10.6c3-3.2,2.8-8.3-0.5-11.3c-3.2-3-8.3-2.8-11.3,0.5l-19.7,21.4h-25.4l42.2-42.2
			c3.1-3.1,3.1-8.2,0-11.3c-3.1-3.1-8.2-3.1-11.3,0l-42.2,42.2V67.3l21.9-21.9c3.1-3.1,3.1-8.2,0-11.3c-3.1-3.1-8.2-3.2-11.3,0
			l-10.6,10.6V32c0-4.4-3.6-8-8-8c-4.4,0-8,3.6-8,8v12.7l-10.6-10.6c-3.1-3.1-8.2-3.1-11.3,0c-3.1,3.1-3.1,8.2,0,11.3l21.9,21.9
			v25.4l-42.2-42.2c-3.1-3.1-8.2-3.1-11.3,0c-3.1,3.1-3.1,8.2,0,11.3l42.2,42.2h-26.1l-20.6-21.5c-3.1-3.2-8.1-3.3-11.3-0.3
			s-3.3,8.1-0.3,11.3l10,10.5h-12.4c-4.4,0-8,3.6-8,8c0,4.4,3.6,8,8,8h12.5l-11,11c-3.1,3.1-3.1,8.2,0,11.3c1.6,1.6,3.6,2.4,5.7,2.4
			c2,0,4.1-0.8,5.6-2.3l22.4-22.3h25.6l-42.2,42.2c-3.1,3.1-3.1,8.2,0,11.3c1.6,1.6,3.6,2.3,5.7,2.3c2.1,0,4.1-0.8,5.7-2.3
			l42.2-42.2v25.2l-21.9,21.9c-3.1,3.1-3.1,8.2,0,11.3c3.1,3.1,8.2,3.1,11.3,0l10.6-10.6V192c0,4.4,3.6,8,8,8c4.4,0,8-3.6,8-8v-12.9
			l10.6,10.6c1.6,1.6,3.6,2.3,5.6,2.3s4.1-0.8,5.7-2.4c3.1-3.1,3.1-8.2,0-11.3l-22.1-21.8v-25.2l42.2,42.2c1.6,1.6,3.6,2.3,5.7,2.3
			c2.1,0,4.1-0.8,5.7-2.3c3.1-3.1,3.1-8.2,0-11.3l-42.3-42.2h25.5l20.9,22.2c1.6,1.7,3.7,2.5,5.8,2.5c2,0,3.9-0.7,5.5-2.2
			c3.2-3,3.4-8.1,0.3-11.3l-10.5-11.2h13.2c4.4,0,8-3.6,8-8C376.25,107.6,372.65,104,368.25,104z"/>
	</g>
</g>
<g>
	<g>
		<circle cx="288.65" cy="111.6" r="29.8"/>
	</g>
</g>
<g>
	<g>
		<path d="M288.65,73.8c-20.8,0-37.8,17-37.8,37.8s16.9,37.8,37.8,37.8c20.9,0,37.8-17,37.8-37.8S309.55,73.8,288.65,73.8z
			 M288.65,133.4c-12,0-21.8-9.8-21.8-21.8s9.8-21.8,21.8-21.8c12.1,0,21.8,9.8,21.8,21.8S300.65,133.4,288.65,133.4z"/>
	</g>
</g>
<g>
	<g>
		<path d="M472.25,328h-13.5l9.7-10.6c3-3.2,2.8-8.3-0.5-11.3c-3.2-3-8.3-2.8-11.3,0.5l-19.7,21.4h-25.4l42.2-42.2
			c3.1-3.1,3.1-8.2,0-11.3c-3.1-3.1-8.2-3.1-11.3,0l-42.2,42.2v-25.4l21.9-21.9c3.1-3.1,3.1-8.2,0-11.3c-3.1-3.1-8.2-3.2-11.3,0
			l-10.6,10.6V256c0-4.4-3.6-8-8-8c-4.4,0-8,3.6-8,8v12.7l-10.6-10.6c-3.1-3.1-8.2-3.1-11.3,0c-3.1,3.1-3.1,8.2,0,11.3l21.9,21.9
			v25.4l-42.2-42.2c-3.1-3.1-8.2-3.1-11.3,0c-3.1,3.1-3.1,8.2,0,11.3l42.2,42.2h-26.1l-20.6-21.5c-3.1-3.2-8.1-3.3-11.3-0.3
			s-3.3,8.1-0.3,11.3l10,10.5h-12.4c-4.4,0-8,3.6-8,8c0,4.4,3.6,8,8,8h12.5l-11,11c-3.1,3.1-3.1,8.2,0,11.3c1.6,1.6,3.6,2.4,5.7,2.4
			c2,0,4.1-0.8,5.6-2.3l22.4-22.3h25.6l-42.2,42.2c-3.1,3.1-3.1,8.2,0,11.3c1.6,1.6,3.6,2.3,5.7,2.3c2.1,0,4.1-0.8,5.7-2.3
			l42.2-42.2v25.2l-21.9,21.9c-3.1,3.1-3.1,8.2,0,11.3c3.1,3.1,8.2,3.1,11.3,0l10.6-10.6V416c0,4.4,3.6,8,8,8c4.4,0,8-3.6,8-8v-12.9
			l10.6,10.6c1.6,1.6,3.6,2.3,5.6,2.3s4.1-0.8,5.7-2.4c3.1-3.1,3.1-8.2,0-11.3l-22.1-21.8v-25.2l42.2,42.2c1.6,1.6,3.6,2.3,5.7,2.3
			c2.1,0,4.1-0.8,5.7-2.3c3.1-3.1,3.1-8.2,0-11.3l-42.3-42.2h25.5l20.9,22.2c1.6,1.7,3.7,2.5,5.8,2.5c2,0,3.9-0.7,5.5-2.2
			c3.2-3,3.4-8.1,0.3-11.3l-10.5-11.2h13.2c4.4,0,8-3.6,8-8C480.25,331.6,476.65,328,472.25,328z"/>
	</g>
</g>
<g>
	<g>
		<circle cx="392.65" cy="335.6" r="29.8"/>
	</g>
</g>
<g>
	<g>
		<path d="M392.65,297.8c-20.8,0-37.8,17-37.8,37.8s16.9,37.8,37.8,37.8c20.9,0,37.8-17,37.8-37.8S413.55,297.8,392.65,297.8z
			 M392.65,357.4c-12,0-21.8-9.8-21.8-21.8s9.8-21.8,21.8-21.8c12.1,0,21.8,9.8,21.8,21.8S404.65,357.4,392.65,357.4z"/>
	</g>
</g>
<g>
	<g>
		<g>
			<path d="M56.85,375.9c-0.4-2.6-0.6-5.3-0.6-8c0-2,0.1-4,0.3-6c0.5-4.4-2.7-8.3-7.1-8.8c-4.3-0.5-8.3,2.7-8.8,7.1
				c-0.3,2.5-0.4,5.1-0.4,7.7c0,3.5,0.2,6.9,0.7,10.3c0.6,4,4,6.9,7.9,6.9c0.4,0,0.8,0,1.2-0.1C54.45,384.3,57.45,380.3,56.85,375.9
				z"/>
			<path d="M184.25,365.4c-1.4-38.9-33-69.4-72-69.4c-23.6,0-45.7,11.6-59.1,31c-2.5,3.6-1.6,8.6,2,11.1c3.6,2.5,8.6,1.6,11.1-2
				c10.5-15.1,27.7-24.1,46-24.1c30.4,0,54.9,23.7,56,54c0,0.3,0.1,0.7,0.1,1c-0.1,0.3-0.1,0.7-0.1,1c0,30.9-25.1,56-56,56
				c-17.8,0-34.1-8.1-44.8-22.4c-2.7-3.5-7.7-4.2-11.2-1.6c-3.5,2.7-4.2,7.7-1.6,11.2c13.7,18.3,34.7,28.8,57.6,28.8
				c39.7,0,72-32.3,72-72c0-0.5,0-0.9-0.1-1.3C184.25,366.3,184.25,365.8,184.25,365.4z"/>
		</g>
	</g>
</g>
<g>
</g>
<g>
</g>
<g>
</g>
<g>
</g>
<g>
</g>
<g>
</g>
<g>
</g>
<g>
</g>
<g>
</g>
<g>
</g>
<g>
</g>
<g>
</g>
<g>
</g>
<g>
</g>
<g>
</g>
</svg>
