<?xml version="1.0" encoding="iso-8859-1"?>
<!-- Generator: Adobe Illustrator 19.0.0, SVG Export Plug-In . SVG Version: 6.00 Build 0)  -->
<svg version="1.1" id="Layer_1" xmlns="http://www.w3.org/2000/svg" xmlns:xlink="http://www.w3.org/1999/xlink" x="0px" y="0px"
	 viewBox="0 0 480.016 480.016" style="enable-background:new 0 0 480.016 480.016;" xml:space="preserve">
<g>
	<g>
		<g>
			<path d="M312.396,89.808c1.24,0.704,2.592,1.04,3.928,1.04c2.792,0,5.504-1.456,6.968-4.064c2.176-3.84,0.816-8.728-3.024-10.896
				c-10.032-5.68-16.264-16.36-16.264-27.872c0-2.28,0.248-4.624,0.736-6.984c2.568-12.312,13.088-22.392,25.592-24.536
				c17-2.936,33.648,8.424,37.032,25.112c0.752,3.728,4.032,6.408,7.84,6.408h24.808c8.824,0,16,7.176,16,16
				c0,2.328-0.488,4.56-1.432,6.64c-1.84,4.016-0.072,8.768,3.944,10.6c4.024,1.848,8.768,0.064,10.6-3.944
				c1.92-4.184,2.888-8.664,2.888-13.304c0-17.648-14.352-32-32-32h-18.736C374.596,13.128,356.508,0,336.02,0
				c-2.808,0-5.632,0.24-8.4,0.728c-19.112,3.264-34.6,18.152-38.536,37.04c-0.72,3.416-1.08,6.864-1.08,10.24
				C288.004,65.288,297.348,81.304,312.396,89.808z"/>
			<path d="M387.436,88.016c0-4.424-3.576-8-8-8h-16c-4.424,0-8,3.576-8,8s3.576,8,8,8h16
				C383.852,96.016,387.436,92.44,387.436,88.016z"/>
			<path d="M83.436,136.016c0-4.424-3.576-8-8-8h-16c-4.424,0-8,3.576-8,8s3.576,8,8,8h16
				C79.852,144.016,83.436,140.44,83.436,136.016z"/>
			<path d="M24.396,137.808c3.832,2.168,8.728,0.816,10.896-3.024c2.176-3.84,0.816-8.728-3.024-10.896
				c-10.032-5.68-16.264-16.36-16.264-27.872c0-2.28,0.248-4.624,0.736-6.984C19.308,76.72,29.828,66.64,42.332,64.496
				c17-2.96,33.648,8.424,37.032,25.112l1.304,6.408h31.344c8.824,0,16,7.176,16,16c0,8.824-7.176,16-16,16h-4.576
				c-4.424,0-8,3.576-8,8s3.576,8,8,8h4.576c17.648,0,32-14.352,32-32s-14.352-32-32-32H93.276
				c-6.68-18.88-24.768-32.008-45.256-32.008c-2.808,0-5.632,0.24-8.4,0.728C20.508,52,5.02,66.888,1.084,85.776
				c-0.72,3.416-1.08,6.864-1.08,10.24C0.004,113.288,9.348,129.304,24.396,137.808z"/>
			<path d="M227.38,230.616c0.344,0,0.696,0.288,1.056,0.24c4.952-0.648,9.984-0.68,14.944-0.712c4.416-0.024,7.976-3,7.952-7.424
				c-0.024-4.392-3.6-6.704-8-6.704c-0.016,0-0.032,0-0.048,0c-5.624,0-11.328-0.824-16.944-0.08
				c-4.376,0.568-7.456,3.344-6.88,7.728C219.988,227.688,223.428,230.616,227.38,230.616z"/>
			<path d="M472.012,368.016h-89.499c0.001-0.01,0.002-0.022,0.003-0.032c0.208-2.696-0.96-5.184-2.904-6.776
				c2.104-1.432,3.488-3.856,3.488-6.6c0-58.024-36.144-111.024-89.952-131.888c-4.104-1.592-8.752,0.44-10.352,4.568
				c-1.6,4.12,0.44,8.752,4.568,10.352c47.688,18.488,79.736,65.496,79.736,116.968c0,2.488,1.136,4.712,2.928,6.184
				c-1.944,1.328-3.288,3.496-3.464,6.016c-0.032,0.392-0.064,0.8-0.096,1.208H222.46h-48h-16h-36.928
				c-0.42-5.134-0.608-8.986-0.608-12.416c0-46.008,24.944-88.504,65.096-110.912c3.864-2.144,5.248-7.024,3.088-10.88
				c-2.144-3.864-7.024-5.24-10.88-3.088c-45.208,25.224-73.296,73.072-73.296,124.88c0,3.58,0.169,7.456,0.553,12.416H8.012
				c-4.424,0-8,3.576-8,8s3.576,8,8,8H158.46h16h48h151.344h98.208c4.424,0,8-3.576,8-8S476.436,368.016,472.012,368.016z"/>
			<path d="M240.012,144.016c4.424,0,8-3.576,8-8v-48c0-4.424-3.576-8-8-8s-8,3.576-8,8v48
				C232.012,140.44,235.588,144.016,240.012,144.016z"/>
			<path d="M240.012,192.016c4.424,0,8-3.576,8-8v-16c0-4.424-3.576-8-8-8s-8,3.576-8,8v16
				C232.012,188.44,235.588,192.016,240.012,192.016z"/>
			<path d="M429.268,162.76c-3.128-3.128-8.184-3.128-11.312,0L388.7,192.016c-3.128,3.128-3.128,8.184,0,11.312
				c1.56,1.56,3.608,2.344,5.656,2.344c2.048,0,4.096-0.784,5.656-2.344l29.256-29.256
				C432.396,170.944,432.396,165.888,429.268,162.76z"/>
			<path d="M366.076,214.64l-11.32,11.32c-3.128,3.128-3.128,8.184,0,11.312c1.56,1.56,3.608,2.344,5.656,2.344
				c2.048,0,4.096-0.776,5.656-2.344l11.32-11.32c3.128-3.128,3.128-8.184,0-11.312C374.26,211.512,369.204,211.512,366.076,214.64z
				"/>
			<path d="M448.012,328.016h24c4.424,0,8-3.576,8-8s-3.576-8-8-8h-24c-4.424,0-8,3.576-8,8S443.588,328.016,448.012,328.016z"/>
			<path d="M400.012,312.016c-4.424,0-8,3.576-8,8s3.576,8,8,8h16c4.424,0,8-3.576,8-8s-3.576-8-8-8H400.012z"/>
			<path d="M40.012,312.016h-24c-4.424,0-8,3.576-8,8s3.576,8,8,8h24c4.424,0,8-3.576,8-8S44.436,312.016,40.012,312.016z"/>
			<path d="M72.012,312.016c-4.424,0-8,3.576-8,8s3.576,8,8,8h16c4.424,0,8-3.576,8-8s-3.576-8-8-8H72.012z"/>
			<path d="M101.668,205.672c2.048,0,4.096-0.784,5.656-2.344c3.128-3.128,3.128-8.184,0-11.312L78.068,162.76
				c-3.128-3.128-8.184-3.128-11.312,0s-3.128,8.184,0,11.312l29.256,29.256C97.572,204.888,99.62,205.672,101.668,205.672z"/>
			<path d="M118.636,214.64c-3.128,3.128-3.128,8.184,0,11.312l11.32,11.32c1.56,1.56,3.608,2.344,5.656,2.344
				c2.048,0,4.096-0.776,5.656-2.344c3.128-3.128,3.128-8.184,0-11.312l-11.32-11.32C126.82,211.512,121.764,211.512,118.636,214.64
				z"/>
			<path d="M424.012,416.016h-208c-4.424,0-8,3.576-8,8s3.576,8,8,8h208c4.424,0,8-3.576,8-8S428.436,416.016,424.012,416.016z"/>
			<path d="M176.012,424.016c0-4.424-3.576-8-8-8h-80c-4.424,0-8,3.576-8,8s3.576,8,8,8h80
				C172.436,432.016,176.012,428.44,176.012,424.016z"/>
			<path d="M376.012,464.016h-56c-4.424,0-8,3.576-8,8s3.576,8,8,8h56c4.424,0,8-3.576,8-8S380.436,464.016,376.012,464.016z"/>
			<path d="M272.012,464.016h-144c-4.424,0-8,3.576-8,8s3.576,8,8,8h144c4.424,0,8-3.576,8-8S276.436,464.016,272.012,464.016z"/>
		</g>
	</g>
</g>
<g>
</g>
<g>
</g>
<g>
</g>
<g>
</g>
<g>
</g>
<g>
</g>
<g>
</g>
<g>
</g>
<g>
</g>
<g>
</g>
<g>
</g>
<g>
</g>
<g>
</g>
<g>
</g>
<g>
</g>
</svg>
