<?xml version="1.0" encoding="iso-8859-1"?>
<!-- Generator: Adobe Illustrator 19.0.0, SVG Export Plug-In . SVG Version: 6.00 Build 0)  -->
<svg version="1.1" id="Layer_1" xmlns="http://www.w3.org/2000/svg" xmlns:xlink="http://www.w3.org/1999/xlink" x="0px" y="0px"
	 viewBox="0 0 480.008 480.008" style="enable-background:new 0 0 480.008 480.008;" xml:space="preserve">
<g>
	<g>
		<g>
			<path d="M342.896,259.793c-3.08-3.168-8.144-3.24-11.312-0.168c-3.168,3.08-3.248,8.144-0.168,11.312
				c3.232,3.328,6.312,6.872,9.16,10.544c1.576,2.032,3.936,3.096,6.328,3.096c1.712,0,3.44-0.552,4.888-1.688
				c3.496-2.712,4.128-7.736,1.416-11.224C350,267.529,346.528,263.537,342.896,259.793z"/>
			<path d="M136.632,282.969c1.456,1.136,3.184,1.68,4.896,1.68c2.392,0,4.752-1.056,6.32-3.088c2.84-3.664,5.928-7.208,9.16-10.552
				c3.072-3.176,2.992-8.24-0.184-11.312c-3.176-3.072-8.232-2.992-11.312,0.184c-3.632,3.752-7.104,7.744-10.296,11.864
				C132.504,275.233,133.136,280.257,136.632,282.969z"/>
			<path d="M174.096,254.545c1.504,0,3.032-0.416,4.384-1.304c19.688-12.912,42.344-19.744,65.528-19.744
				c23.368,0,46.152,6.808,65.904,19.696c3.712,2.424,8.656,1.376,11.08-2.328c2.416-3.704,1.368-8.656-2.328-11.072
				c-22.36-14.592-48.176-22.304-74.656-22.304c-26.312,0-52.008,7.728-74.312,22.368c-3.696,2.424-4.72,7.384-2.296,11.08
				C168.936,253.273,171.488,254.545,174.096,254.545z"/>
			<path d="M240.008,147.985c4.424,0,8-3.584,8-8v-48c0-4.416-3.576-8-8-8s-8,3.584-8,8v48
				C232.008,144.401,235.584,147.985,240.008,147.985z"/>
			<path d="M240.008,195.985c4.424,0,8-3.584,8-8v-16c0-4.416-3.576-8-8-8s-8,3.584-8,8v16
				C232.008,192.401,235.584,195.985,240.008,195.985z"/>
			<path d="M429.264,166.729c-3.128-3.128-8.184-3.128-11.312,0l-29.256,29.256c-3.128,3.12-3.128,8.184,0,11.312
				c1.56,1.56,3.608,2.344,5.656,2.344c2.048,0,4.096-0.784,5.656-2.344l29.256-29.256
				C432.392,174.921,432.392,169.857,429.264,166.729z"/>
			<path d="M366.064,241.241l11.32-11.312c3.128-3.128,3.128-8.2,0-11.32c-3.128-3.12-8.184-3.12-11.312,0l-11.32,11.312
				c-3.128,3.128-3.128,8.192,0,11.32c1.56,1.56,3.608,2.344,5.656,2.344C362.456,243.585,364.504,242.801,366.064,241.241z"/>
			<path d="M448.008,331.985h24c4.424,0,8-3.584,8-8c0-4.416-3.576-8-8-8h-24c-4.424,0-8,3.584-8,8
				C440.008,328.401,443.584,331.985,448.008,331.985z"/>
			<path d="M400.008,315.985c-4.424,0-8,3.584-8,8c0,4.416,3.576,8,8,8h16c4.424,0,8-3.584,8-8c0-4.416-3.576-8-8-8H400.008z"/>
			<path d="M40.008,315.985h-24c-4.424,0-8,3.584-8,8c0,4.416,3.576,8,8,8h24c4.424,0,8-3.584,8-8
				C48.008,319.569,44.432,315.985,40.008,315.985z"/>
			<path d="M72.008,315.985c-4.424,0-8,3.584-8,8c0,4.416,3.576,8,8,8h16c4.424,0,8-3.584,8-8c0-4.416-3.576-8-8-8H72.008z"/>
			<path d="M101.664,209.641c2.048,0,4.096-0.784,5.656-2.344c3.128-3.128,3.128-8.192,0-11.312l-29.256-29.256
				c-3.128-3.128-8.184-3.128-11.312,0s-3.128,8.192,0,11.312l29.256,29.256C97.568,208.857,99.616,209.641,101.664,209.641z"/>
			<path d="M141.264,241.249c3.128-3.128,3.128-8.192,0-11.32l-11.32-11.312c-3.128-3.12-8.184-3.128-11.312,0
				c-3.128,3.128-3.128,8.192,0,11.32l11.32,11.312c1.56,1.552,3.608,2.336,5.656,2.336
				C137.656,243.585,139.704,242.801,141.264,241.249z"/>
			<path d="M387.44,91.985c0-4.416-3.576-8-8-8h-16c-4.424,0-8,3.584-8,8s3.576,8,8,8h16
				C383.856,99.985,387.44,96.401,387.44,91.985z"/>
			<path d="M312.4,93.793c1.24,0.696,2.592,1.032,3.928,1.032c2.792,0,5.504-1.464,6.968-4.064
				c2.176-3.848,0.816-8.728-3.024-10.904C310.232,74.185,304,63.497,304,51.985c0-2.288,0.248-4.64,0.736-6.984
				c2.568-12.312,13.08-22.4,25.568-24.528c17.288-2.912,33.672,8.44,37.056,25.104c0.752,3.728,4.032,6.408,7.84,6.408h24.808
				c8.824,0,16,7.176,16,16c0,2.328-0.488,4.56-1.432,6.648c-1.84,4.016-0.072,8.768,3.944,10.6c4.024,1.864,8.768,0.064,10.6-3.944
				c1.92-4.192,2.888-8.664,2.888-13.304c0-17.648-14.352-32-32-32h-18.736c-7.584-21.44-30.216-35.256-53.656-31.28
				c-19.112,3.256-34.6,18.144-38.536,37.032c-0.72,3.416-1.08,6.864-1.08,10.248C288,69.265,297.352,85.281,312.4,93.793z"/>
			<path d="M83.44,139.985c0-4.416-3.576-8-8-8h-16c-4.424,0-8,3.584-8,8s3.576,8,8,8h16
				C79.856,147.985,83.44,144.401,83.44,139.985z"/>
			<path d="M24.4,141.785c3.84,2.168,8.728,0.824,10.896-3.024c2.176-3.848,0.816-8.728-3.024-10.904
				C22.232,122.185,16,111.497,16,99.985c0-2.288,0.248-4.64,0.736-6.984c2.568-12.312,13.08-22.4,25.568-24.528
				c17.256-2.92,33.672,8.44,37.056,25.104l1.304,6.408h31.344c8.824,0,16,7.176,16,16c0,8.824-7.176,16-16,16h-4.568
				c-4.424,0-8,3.584-8,8s3.576,8,8,8h4.568c17.648,0,32-14.352,32-32s-14.352-32-32-32H93.272
				c-7.584-21.44-30.184-35.248-53.656-31.288C20.504,55.953,5.016,70.841,1.08,89.729C0.36,93.145,0,96.593,0,99.977
				C0,117.257,9.352,133.273,24.4,141.785z"/>
			<path d="M472.008,371.985h-89.5c0.387-5.268,0.58-9.714,0.58-13.416c0-22.496-4.16-42.728-12.352-60.128
				c-1.872-4-6.64-5.728-10.64-3.832c-4,1.888-5.712,6.648-3.832,10.648c7.184,15.256,10.824,33.192,10.824,53.312
				c0,3.592-0.2,8.024-0.624,13.416h-38.456h-32h-48h-16H121.391c-0.008-0.085-0.016-0.171-0.031-0.256
				c-0.528-4.624-0.992-8.616-0.992-12.152c0-19.608,3.944-37.856,11.72-54.216c1.896-4,0.192-8.768-3.8-10.664
				c-3.976-1.904-8.768-0.192-10.656,3.792c-8.8,18.528-13.264,39.08-13.264,61.08c0,3.974,0.43,8.1,0.926,12.416H8.008
				c-4.424,0-8,3.584-8,8c0,4.416,3.576,8,8,8h106.208h77.792h40h16h48h32H373.8h98.208c4.424,0,8-3.584,8-8
				C480.008,375.569,476.432,371.985,472.008,371.985z"/>
			<path d="M416.008,411.985h-208c-4.424,0-8,3.584-8,8c0,4.416,3.576,8,8,8h208c4.424,0,8-3.584,8-8
				C424.008,415.569,420.432,411.985,416.008,411.985z"/>
			<path d="M168.008,419.985c0-4.416-3.576-8-8-8h-80c-4.424,0-8,3.584-8,8c0,4.416,3.576,8,8,8h80
				C164.432,427.985,168.008,424.401,168.008,419.985z"/>
			<path d="M368.008,459.985h-56c-4.424,0-8,3.584-8,8c0,4.416,3.576,8,8,8h56c4.424,0,8-3.584,8-8
				C376.008,463.569,372.432,459.985,368.008,459.985z"/>
			<path d="M264.008,459.985h-144c-4.424,0-8,3.584-8,8c0,4.416,3.576,8,8,8h144c4.424,0,8-3.584,8-8
				C272.008,463.569,268.432,459.985,264.008,459.985z"/>
			<path d="M280.004,291.485c0-0.063-0.001-0.125-0.002-0.187c-0.004-0.174-0.014-0.347-0.03-0.52
				c-0.009-0.103-0.02-0.205-0.033-0.307c-0.017-0.132-0.037-0.264-0.061-0.396c-0.025-0.142-0.054-0.283-0.087-0.424
				c-0.022-0.091-0.044-0.181-0.069-0.271c-0.048-0.178-0.103-0.354-0.164-0.529c-0.019-0.053-0.037-0.105-0.057-0.158
				c-0.077-0.208-0.163-0.412-0.258-0.614c-0.01-0.021-0.02-0.041-0.03-0.062c-0.393-0.818-0.924-1.585-1.612-2.256l-0.032-0.032
				l-22.448-24.168c-1.464-1.576-3.496-2.496-5.648-2.552c-2.095-0.102-4.179,0.729-5.709,2.189
				c-0.476,0.299-0.929,0.649-1.347,1.059l-24,23.504c-2.063,2.011-2.794,4.859-2.206,7.475c0.309,1.399,0.99,2.734,2.062,3.837
				c3.08,3.168,8.144,3.24,11.312,0.168l18.52-17.97l18.312,17.93c0.029,0.028,0.061,0.052,0.09,0.08
				c0.149,0.143,0.301,0.279,0.458,0.408c0.051,0.042,0.103,0.081,0.155,0.121c0.159,0.124,0.32,0.243,0.487,0.353
				c0.06,0.04,0.121,0.076,0.182,0.114c0.161,0.101,0.324,0.198,0.49,0.286c0.076,0.04,0.153,0.075,0.23,0.112
				c0.156,0.076,0.312,0.151,0.471,0.216c0.097,0.04,0.195,0.072,0.294,0.108c0.144,0.052,0.288,0.107,0.435,0.15
				c0.121,0.036,0.244,0.063,0.366,0.094c0.128,0.032,0.256,0.068,0.385,0.093c0.155,0.03,0.311,0.049,0.468,0.07
				c0.1,0.014,0.2,0.033,0.301,0.043c0.259,0.025,0.52,0.039,0.78,0.039c0.252,0,0.505-0.013,0.756-0.037
				c0.079-0.007,0.156-0.023,0.235-0.032c0.174-0.022,0.347-0.043,0.519-0.076c0.083-0.016,0.164-0.039,0.246-0.057
				c0.169-0.038,0.338-0.077,0.506-0.126c0.069-0.02,0.137-0.046,0.206-0.068c0.182-0.059,0.363-0.121,0.542-0.193
				c0.045-0.018,0.09-0.04,0.135-0.059c0.207-0.088,0.411-0.184,0.612-0.29c0.011-0.006,0.022-0.012,0.033-0.018
				c0.587-0.313,1.147-0.696,1.659-1.163c1.516-1.407,2.354-3.265,2.518-5.175c0.002-0.023,0.004-0.046,0.006-0.069
				C279.996,291.912,280.004,291.698,280.004,291.485z"/>
			<path d="M280.001,339.297c-0.004-0.174-0.014-0.347-0.03-0.52c-0.009-0.103-0.02-0.205-0.033-0.307
				c-0.017-0.132-0.037-0.264-0.061-0.396c-0.025-0.142-0.054-0.283-0.087-0.424c-0.022-0.091-0.044-0.181-0.069-0.271
				c-0.048-0.178-0.103-0.354-0.164-0.529c-0.019-0.053-0.037-0.105-0.057-0.158c-0.077-0.208-0.163-0.412-0.258-0.614
				c-0.01-0.021-0.02-0.041-0.03-0.062c-0.393-0.818-0.924-1.585-1.612-2.256l-0.032-0.032l-22.448-24.168
				c-1.464-1.576-3.496-2.496-5.648-2.552c-2.095-0.126-4.179,0.728-5.709,2.19c-0.476,0.299-0.929,0.649-1.347,1.058l-24,23.504
				c-2.063,2.011-2.794,4.859-2.206,7.475c0.309,1.399,0.99,2.734,2.062,3.837c3.08,3.168,8.144,3.24,11.312,0.168l18.52-17.97
				l18.312,17.93c0.029,0.028,0.061,0.052,0.09,0.08c0.149,0.143,0.301,0.279,0.458,0.408c0.051,0.042,0.103,0.081,0.155,0.121
				c0.159,0.124,0.32,0.243,0.487,0.353c0.06,0.04,0.121,0.076,0.182,0.114c0.161,0.101,0.324,0.198,0.49,0.286
				c0.076,0.04,0.153,0.075,0.23,0.112c0.156,0.076,0.312,0.151,0.471,0.216c0.097,0.04,0.195,0.072,0.294,0.108
				c0.144,0.052,0.288,0.107,0.435,0.15c0.121,0.036,0.244,0.063,0.366,0.094c0.128,0.032,0.256,0.068,0.385,0.093
				c0.155,0.03,0.311,0.049,0.468,0.07c0.1,0.014,0.2,0.033,0.301,0.043c0.259,0.025,0.52,0.039,0.78,0.039
				c0.252,0,0.505-0.013,0.756-0.037c0.079-0.007,0.156-0.023,0.235-0.032c0.174-0.022,0.347-0.043,0.519-0.076
				c0.083-0.016,0.164-0.039,0.246-0.057c0.169-0.038,0.338-0.077,0.506-0.126c0.069-0.02,0.137-0.046,0.206-0.068
				c0.182-0.059,0.363-0.121,0.542-0.193c0.045-0.018,0.09-0.04,0.135-0.059c0.207-0.088,0.411-0.184,0.612-0.29
				c0.011-0.006,0.022-0.012,0.033-0.018c0.587-0.313,1.147-0.696,1.659-1.163c1.516-1.407,2.354-3.265,2.518-5.175
				c0.002-0.023,0.004-0.046,0.006-0.069c0.016-0.213,0.024-0.426,0.024-0.64C280.004,339.422,280.003,339.36,280.001,339.297z"/>
		</g>
	</g>
</g>
<g>
</g>
<g>
</g>
<g>
</g>
<g>
</g>
<g>
</g>
<g>
</g>
<g>
</g>
<g>
</g>
<g>
</g>
<g>
</g>
<g>
</g>
<g>
</g>
<g>
</g>
<g>
</g>
<g>
</g>
</svg>
