<?xml version="1.0" encoding="iso-8859-1"?>
<!-- Generator: Adobe Illustrator 19.0.0, SVG Export Plug-In . SVG Version: 6.00 Build 0)  -->
<svg version="1.1" id="Layer_1" xmlns="http://www.w3.org/2000/svg" xmlns:xlink="http://www.w3.org/1999/xlink" x="0px" y="0px"
	 viewBox="0 0 481.328 481.328" style="enable-background:new 0 0 481.328 481.328;" xml:space="preserve">
<g>
	<g>
		<g>
			<path d="M18.488,369.688c-0.048-1.304-0.072-0.624-0.072-1.928c0-35.776,19.544-68.632,51-85.768
				c2.568-1.4,4.168-4.096,4.168-7.024V232.52c0-4.424-3.584-8-8-8s-8,3.576-8,8v37.808C23.432,290.832,2.416,326.736,2.416,366.76
				c0,1.504,0.032,2.024,0.088,3.544C2.672,374.608,6.216,376,10.496,376c0.096,0,0.208,0,0.312,0
				C15.224,376,18.664,374.104,18.488,369.688z"/>
			<path d="M30.096,414.04c-2.104-3.88-6.96-5.328-10.848-3.2c-3.872,2.104-5.312,6.968-3.2,10.84
				c2.728,5.008,5.864,9.864,9.328,14.44c1.568,2.072,3.96,3.168,6.384,3.168c1.68,0,3.384-0.528,4.808-1.624
				c3.528-2.664,4.216-7.68,1.552-11.2C35.136,422.52,32.432,418.336,30.096,414.04z"/>
			<path d="M220.616,351.336c-4.4,0.344-7.688,4.192-7.344,8.6c0.208,2.584,0.312,5.184,0.312,7.832
				c0.008,2.336-0.072,4.656-0.24,6.96c-0.312,4.4,3.008,8.232,7.416,8.536c0.192,0.016,0.384,0.024,0.568,0.024
				c4.168,0,7.68-3.216,7.968-7.432c0.184-2.68,0.28-5.392,0.28-8.104c0-3.056-0.12-6.08-0.352-9.064
				C228.872,354.28,225.056,351.04,220.616,351.336z"/>
			<path d="M65.584,128.512c4.416,0,8-3.576,8-8V56c0-22.056,17.944-40,40.008-40c0.016,0,0.032,0,0.048,0
				c5.624,0,11.064,1.152,16.16,3.424c4.024,1.792,8.768-0.024,10.56-4.064c1.8-4.032-0.016-8.76-4.056-10.56
				C129.144,1.616,121.52,0,113.648,0c-0.024,0-0.048,0-0.064,0c-30.88,0-56,25.128-56,56v64.512
				C57.584,124.936,61.168,128.512,65.584,128.512z"/>
			<path d="M65.584,192.512c4.416,0,8-3.576,8-8v-16c0-4.424-3.584-8-8-8s-8,3.576-8,8v16
				C57.584,188.936,61.168,192.512,65.584,192.512z"/>
			<path d="M153.584,56v8.624c0,4.424,3.584,8,8,8s8-3.576,8-8V56c0-2.848-0.216-5.728-0.648-8.552
				c-0.664-4.376-4.728-7.36-9.112-6.704c-4.368,0.664-7.368,4.744-6.704,9.112C153.424,51.88,153.584,53.952,153.584,56z"/>
			<path d="M161.584,104.624c-4.416,0-8,3.576-8,8v160c0,3.08,1.76,5.88,4.536,7.216c17.472,8.392,31.936,21.608,41.832,38.232
				c1.496,2.512,4.152,3.904,6.88,3.904c1.392,0,2.808-0.36,4.088-1.12c3.8-2.264,5.04-7.168,2.784-10.968
				c-10.648-17.88-25.832-32.368-44.12-42.168V112.624C169.584,108.2,166,104.624,161.584,104.624z"/>
			<path d="M211.352,413.84c-3.824-2.216-8.712-0.936-10.936,2.888c-19.28,33.16-56.784,52.2-95.568,47.976
				c-11.496-1.264-22.592-4.608-33-9.936c-3.928-2.024-8.752-0.456-10.768,3.472c-2.016,3.936-0.464,8.752,3.472,10.768
				c12.144,6.224,25.112,10.128,38.552,11.608c4.296,0.472,8.64,0.712,12.904,0.712c40.312,0,77.952-21.664,98.232-56.552
				C216.464,420.96,215.168,416.056,211.352,413.84z"/>
			<path d="M114.608,143c-2.8-0.072-5.256,1.248-6.784,3.472l-16.832,24.496c-2.496,3.64-1.576,8.632,2.064,11.128
				c3.656,2.512,8.624,1.584,11.128-2.064l9.888-14.4l8.712,14.08c1.512,2.448,4.128,3.792,6.808,3.792c1.44,0,2.888-0.384,4.2-1.2
				c3.76-2.328,4.92-7.256,2.592-11.016l-15.168-24.496C119.792,144.496,117.304,143.072,114.608,143z"/>
			<path d="M136.384,123.288l-15.168-24.496c-1.424-2.296-3.912-3.72-6.608-3.792c-2.8-0.088-5.256,1.248-6.784,3.472
				l-16.832,24.496c-2.496,3.64-1.576,8.632,2.064,11.128c3.656,2.512,8.624,1.584,11.128-2.064l9.888-14.4l8.712,14.08
				c1.512,2.448,4.128,3.792,6.808,3.792c1.44,0,2.888-0.384,4.2-1.2C137.552,131.976,138.712,127.048,136.384,123.288z"/>
			<path d="M136.384,75.288l-15.168-24.496c-1.424-2.296-3.912-3.72-6.608-3.792c-2.8,0.072-5.256,1.248-6.784,3.472L90.992,74.968
				c-2.496,3.64-1.576,8.632,2.064,11.128c3.656,2.504,8.624,1.584,11.128-2.064l9.888-14.4l8.712,14.08
				c1.512,2.448,4.128,3.792,6.808,3.792c1.44,0,2.888-0.384,4.2-1.2C137.552,83.976,138.712,79.048,136.384,75.288z"/>
			<path d="M220.024,115.92c1.176,0.6,2.432,0.888,3.664,0.888c2.896,0,5.696-1.576,7.12-4.328c2.304-4.464,4.888-8.808,7.68-12.928
				c2.48-3.656,1.528-8.632-2.128-11.112c-3.648-2.496-8.632-1.52-11.112,2.128c-3.152,4.648-6.064,9.544-8.664,14.568
				C214.56,109.072,216.096,113.888,220.024,115.92z"/>
			<path d="M269.896,67.512c20.608-14.52,44.784-22.192,69.928-22.192c25.496,0,49.96,7.872,70.728,22.768
				c1.408,1.016,3.04,1.504,4.656,1.504c2.496,0,4.944-1.16,6.504-3.336c2.576-3.592,1.752-8.592-1.84-11.168
				c-23.504-16.856-51.184-25.768-80.048-25.768c-28.464,0-55.832,8.688-79.152,25.12c-3.608,2.544-4.48,7.536-1.928,11.152
				C261.288,69.192,266.272,70.064,269.896,67.512z"/>
			<path d="M449.288,113.336c1.408,2.784,4.224,4.384,7.144,4.384c1.216,0,2.448-0.272,3.608-0.864
				c3.944-1.992,5.52-6.808,3.52-10.752c-2.552-5.032-5.424-9.952-8.536-14.616c-2.456-3.672-7.416-4.664-11.096-2.216
				c-3.672,2.456-4.664,7.424-2.216,11.096C444.48,104.496,447.024,108.856,449.288,113.336z"/>
			<path d="M339.68,296.16c-5.048-0.008-10.08-0.336-14.952-0.96c-4.384-0.528-8.384,2.52-8.944,6.912
				c-0.552,4.384,2.544,8.344,6.928,8.904c5.528,0.704,11.224,0.984,16.944,0.984h0.008c4.416,0,7.992-3.488,8-7.912
				C347.672,299.672,344.096,296.168,339.68,296.16z"/>
			<path d="M478.912,170.752c0-5.408-0.304-10.84-0.904-16.176c-0.496-4.392-4.552-7.512-8.84-7.064
				c-4.392,0.496-7.552,4.456-7.056,8.84c0.528,4.744,0.8,9.584,0.8,14.4c0,51.712-31.84,98.824-79.24,117.224
				c-4.12,1.6-6.16,6.24-4.56,10.36c1.232,3.168,4.256,5.104,7.456,5.104c0.968,0,1.944-0.168,2.896-0.536
				c20.216-7.856,37.904-20.336,52.12-35.952V304c0,4.424,3.584,8,8,8c4.416,0,8-3.576,8-8v-56c0-0.664-0.224-1.248-0.376-1.864
				C471,223.952,478.912,197.944,478.912,170.752z"/>
			<path d="M449.584,328c-4.416,0-8,3.576-8,8v16c0,4.424,3.584,8,8,8c4.416,0,8-3.576,8-8v-16C457.584,331.576,454,328,449.584,328
				z"/>
			<path d="M369.584,296c-4.416,0-8,3.576-8,8v56c0,4.424,3.584,8,8,8c4.416,0,8-3.576,8-8v-56C377.584,299.576,374,296,369.584,296
				z"/>
			<path d="M369.584,384c-4.416,0-8,3.576-8,8v16c0,4.424,3.584,8,8,8c4.416,0,8-3.576,8-8v-16C377.584,387.576,374,384,369.584,384
				z"/>
			<path d="M286.168,289.624c0.416-3.192-1.072-6.448-4.072-8.064c-40.312-21.856-65.352-64.32-65.352-110.808
				c0-5.136,0.312-10.296,0.912-15.344c0.528-4.392-2.6-8.368-6.992-8.896c-4.376-0.512-8.368,2.6-8.896,6.992
				c-0.68,5.68-1.024,11.488-1.024,17.248c0,52.072,27.96,99.664,73,124.44c-0.024,0.28-0.16,0.52-0.16,0.808v24
				c0,4.424,3.584,8,8,8c4.416,0,8-3.576,8-8v-24C289.584,293.328,288.184,291.072,286.168,289.624z"/>
			<path d="M281.584,344c-4.416,0-8,3.576-8,8v16c0,4.424,3.584,8,8,8c4.416,0,8-3.576,8-8v-16C289.584,347.576,286,344,281.584,344
				z"/>
			<path d="M58.144,375.976c-0.376-2.624-0.56-5.304-0.56-7.976c0-2.024,0.104-4.024,0.312-5.992c0.464-4.392-2.72-8.336-7.112-8.8
				c-4.312-0.44-8.328,2.712-8.8,7.112c-0.264,2.512-0.4,5.08-0.4,7.672c0,3.424,0.24,6.872,0.728,10.256
				c0.568,3.992,3.992,6.864,7.904,6.864c0.376,0,0.76-0.024,1.144-0.08C55.736,384.408,58.776,380.352,58.144,375.976z"/>
			<path d="M113.584,440c39.696,0,72-32.296,72-72c0-0.44-0.032-0.856-0.096-1.28c0.056-0.424,0.072-0.848,0.056-1.288
				C184.176,326.496,152.568,296,113.584,296c-23.568,0-45.672,11.56-59.144,30.92c-2.52,3.64-1.632,8.624,2,11.144
				c3.632,2.528,8.624,1.624,11.136-2C78.056,320.992,95.248,312,113.584,312c30.32,0,54.904,23.72,55.968,53.992
				c0.008,0.336,0.048,0.672,0.096,1c-0.048,0.328-0.064,0.664-0.064,1.008c0,30.872-25.12,56-56,56
				c-17.8,0-34.144-8.176-44.832-22.44c-2.648-3.536-7.656-4.248-11.2-1.6c-3.536,2.648-4.256,7.664-1.608,11.192
				C69.696,429.488,90.704,440,113.584,440z"/>
		</g>
	</g>
</g>
<g>
</g>
<g>
</g>
<g>
</g>
<g>
</g>
<g>
</g>
<g>
</g>
<g>
</g>
<g>
</g>
<g>
</g>
<g>
</g>
<g>
</g>
<g>
</g>
<g>
</g>
<g>
</g>
<g>
</g>
</svg>
