<?xml version="1.0" encoding="iso-8859-1"?>
<!-- Generator: Adobe Illustrator 19.0.0, SVG Export Plug-In . SVG Version: 6.00 Build 0)  -->
<svg version="1.1" id="Layer_1" xmlns="http://www.w3.org/2000/svg" xmlns:xlink="http://www.w3.org/1999/xlink" x="0px" y="0px"
	 viewBox="0 0 480.664 480.664" style="enable-background:new 0 0 480.664 480.664;" xml:space="preserve">
<g>
	<g>
		<g>
			<path d="M400.028,27.968c4.408,2.224,8.736,4.776,12.88,7.584c1.376,0.936,2.944,1.384,4.488,1.384
				c2.56,0,5.08-1.224,6.632-3.504c2.48-3.656,1.528-8.624-2.128-11.112c-4.704-3.2-9.64-6.112-14.68-8.64
				c-3.936-2-8.752-0.408-10.744,3.544C394.492,21.176,396.076,25.984,400.028,27.968z"/>
			<path d="M236.844,83.6c1.128,0.544,2.312,0.8,3.48,0.8c2.976,0,5.832-1.664,7.2-4.52c18.76-38.808,58.72-63.88,101.8-63.88
				c7.592,0,15.176,0.76,22.544,2.248c4.304,0.872,8.552-1.92,9.432-6.256c0.88-4.328-1.928-8.552-6.256-9.424
				C366.636,0.864,357.98,0,349.324,0c-49.168,0-94.784,28.616-116.2,72.92C231.204,76.896,232.868,81.68,236.844,83.6z"/>
			<path d="M462.332,128.984c0,23.448-7.096,45.92-20.544,65c-2.552,3.616-1.68,8.608,1.928,11.152
				c1.408,0.992,3.008,1.464,4.6,1.464c2.512,0,4.992-1.176,6.544-3.4c15.352-21.792,23.472-47.456,23.472-74.216
				c0-30.824-11.048-60.656-31.096-84c-2.888-3.352-7.936-3.728-11.28-0.856c-3.352,2.88-3.728,7.928-0.856,11.28
				C452.66,75.856,462.332,101.984,462.332,128.984z"/>
			<path d="M80.332,368.664c-17.648,0-32,14.352-32,32s14.352,32,32,32s32-14.352,32-32S97.98,368.664,80.332,368.664z
				 M80.332,416.664c-8.824,0-16-7.176-16-16c0-8.824,7.176-16,16-16s16,7.176,16,16C96.332,409.488,89.156,416.664,80.332,416.664z
				"/>
			<path d="M241.332,416.664c-17.648,0-32,14.352-32,32s14.352,32,32,32s32-14.352,32-32S258.98,416.664,241.332,416.664z
				 M241.332,464.664c-8.824,0-16-7.176-16-16c0-8.824,7.176-16,16-16c8.824,0,16,7.176,16,16
				C257.332,457.488,250.156,464.664,241.332,464.664z"/>
			<path d="M385.332,368.664c-17.648,0-32,14.352-32,32s14.352,32,32,32s32-14.352,32-32S402.98,368.664,385.332,368.664z
				 M385.332,416.664c-8.824,0-16-7.176-16-16c0-8.824,7.176-16,16-16c8.824,0,16,7.176,16,16
				C401.332,409.488,394.156,416.664,385.332,416.664z"/>
			<path d="M26.428,137.512c1.376,0.944,2.952,1.4,4.504,1.4c2.56,0,5.064-1.216,6.616-3.472c2.816-4.128,5.92-8.104,9.208-11.816
				c2.928-3.304,2.624-8.368-0.68-11.296c-3.304-2.92-8.36-2.64-11.288,0.68c-3.736,4.208-7.256,8.712-10.448,13.384
				C21.852,130.04,22.78,135.016,26.428,137.512z"/>
			<path d="M278.156,118.224c-5.784,0.792-11.496,2.112-16.984,3.92c-4.2,1.376-6.48,5.904-5.104,10.096
				c1.104,3.368,4.24,5.504,7.6,5.504c0.832,0,1.672-0.136,2.504-0.408c4.576-1.504,9.336-2.6,14.16-3.264
				c4.368-0.6,7.432-4.632,6.84-9.008C286.564,120.696,282.548,117.616,278.156,118.224z"/>
			<path d="M420.332,220.656h-32.344c0.208-2.088,0.328-3.872,0.336-6.536c0-39.832-23.12-75.016-58.92-89.632
				c-4.08-1.672-8.76,0.288-10.432,4.384s0.288,8.76,4.384,10.432c29.752,12.144,48.968,41.512,48.968,75.088
				c-0.008,2.616-0.2,4.192-0.488,6.808c-0.2,1.72-0.432,3.816-0.696,6.736c-0.2,2.24,0.552,4.456,2.064,6.12
				c1.512,1.664,3.656,2.608,5.904,2.608h41.224c24.256,0,44,21.528,44,48c0,17.608-8.824,33.784-23.016,42.208
				c-3.808,2.256-5.056,7.16-2.808,10.96c1.496,2.52,4.152,3.92,6.888,3.92c1.392,0,2.792-0.36,4.072-1.128
				c19.032-11.296,30.864-32.736,30.864-55.968C480.332,249.368,453.42,220.656,420.332,220.656z"/>
			<path d="M334.316,332.272l-160.448-0.768c-4.528,0.256-8.008,3.592-8.04,8.016c-0.024,4.416,3.536,8.12,7.96,8.144l160.448,1
				c0.016,0,0.024,0,0.04,0c4.4,0,7.976-3.752,8-8.152C342.3,336.088,338.74,332.296,334.316,332.272z"/>
			<path d="M66.748,323.072c2.456,0,4.888-1.136,6.456-3.272c2.608-3.56,1.84-8.568-1.72-11.184
				c-6.464-4.736-12.48-10.2-18.304-16.624c-23.76-22.984-36.848-54.04-36.848-87.456c0-9.52,1.08-18.984,3.2-28.128
				c1.008-4.304-1.672-8.608-5.976-9.608c-4.312-1.008-8.6,1.672-9.6,5.984c-2.408,10.328-3.624,21.016-3.624,31.752
				c0,37.792,14.824,72.936,41.344,98.568c6.176,6.84,13.016,13.032,20.344,18.416C63.452,322.568,65.108,323.072,66.748,323.072z"
				/>
			<path d="M398.452,348.664c0.016,0,0.024,0,0.04,0c4.392,0,7.976-3.56,8-7.96c0.024-4.424-3.536-8.024-7.96-8.048l-16.072,0.016
				c-0.016,0-0.024,0-0.04,0c-4.4,0-7.976,3.488-8,7.896c-0.024,4.416,3.544,7.952,7.96,7.968L398.452,348.664z"/>
			<path d="M126.66,330.504c-5.016-0.664-9.984-1.616-14.768-2.84c-4.272-1.104-8.64,1.48-9.736,5.768
				c-1.088,4.272,1.488,8.632,5.768,9.728c5.4,1.376,11,2.456,16.64,3.2c0.352,0.048,0.712,0.072,1.056,0.072
				c3.952,0,7.392-2.928,7.92-6.952C134.124,335.104,131.044,331.08,126.66,330.504z"/>
			<path d="M228.236,119.184c2.192,0,4.376-0.888,5.952-2.648c2.952-3.288,2.68-8.344-0.608-11.296
				C210.34,84.376,180.404,71.84,149.9,70c-6.616-0.912-12.2-1.336-17.568-1.336c-20.072,0-39.344,4.52-57.288,13.432
				c-3.96,1.96-5.576,6.76-3.608,10.72c1.968,3.952,6.768,5.584,10.72,3.608c15.712-7.8,32.6-11.76,50.176-11.76
				c4.624,0,9.512,0.376,16,1.24c27.512,1.68,53.992,12.768,74.56,31.232C224.42,118.512,226.332,119.184,228.236,119.184z"/>
		</g>
	</g>
</g>
<g>
</g>
<g>
</g>
<g>
</g>
<g>
</g>
<g>
</g>
<g>
</g>
<g>
</g>
<g>
</g>
<g>
</g>
<g>
</g>
<g>
</g>
<g>
</g>
<g>
</g>
<g>
</g>
<g>
</g>
</svg>
