<?xml version="1.0" encoding="iso-8859-1"?>
<!-- Generator: Adobe Illustrator 19.0.0, SVG Export Plug-In . SVG Version: 6.00 Build 0)  -->
<svg version="1.1" id="Layer_1" xmlns="http://www.w3.org/2000/svg" xmlns:xlink="http://www.w3.org/1999/xlink" x="0px" y="0px"
	 viewBox="0 0 484 484" style="enable-background:new 0 0 484 484;" xml:space="preserve">
<g>
	<g>
		<g>
			<path d="M229.896,50.52c2.192,0,4.376-0.896,5.952-2.656c2.952-3.288,2.68-8.344-0.608-11.296
				c-23.232-20.856-53.168-33.392-83.664-35.232C144.952,0.424,139.368,0,134,0c-20.064,0-39.344,4.52-57.296,13.44
				c-3.96,1.96-5.576,6.76-3.608,10.72c1.952,3.952,6.736,5.592,10.72,3.608C99.536,19.96,116.424,16,134,16
				c4.624,0,9.512,0.376,16,1.24c27.52,1.688,54,12.776,74.56,31.232C226.08,49.848,227.992,50.52,229.896,50.52z"/>
			<path d="M128.32,261.848c-5.016-0.664-9.984-1.616-14.768-2.84c-4.272-1.112-8.632,1.48-9.728,5.768
				c-1.096,4.272,1.488,8.632,5.768,9.728c5.392,1.376,10.992,2.456,16.632,3.2c0.36,0.048,0.712,0.072,1.064,0.072
				c3.952,0,7.384-2.928,7.912-6.944C135.784,266.448,132.696,262.424,128.32,261.848z"/>
			<path d="M43.352,234.432c6.168,6.84,13.008,13.04,20.344,18.424c1.424,1.048,3.088,1.552,4.728,1.552
				c2.456,0,4.888-1.128,6.456-3.264c2.616-3.56,1.848-8.568-1.712-11.184c-6.464-4.744-12.496-10.208-18.312-16.632
				C31.088,200.352,18,169.288,18,135.872c0-9.504,1.08-18.968,3.216-28.12c1-4.304-1.68-8.608-5.984-9.608
				c-4.288-1-8.608,1.672-9.608,5.984C3.216,114.464,2,125.144,2,135.872C2,173.664,16.824,208.816,43.352,234.432z"/>
			<path d="M265.336,69.08c0.832,0,1.672-0.128,2.488-0.408c4.576-1.504,9.336-2.6,14.16-3.264c4.376-0.6,7.44-4.632,6.84-9.008
				c-0.6-4.376-4.672-7.448-9.008-6.84c-5.784,0.792-11.496,2.112-16.984,3.92c-4.2,1.376-6.48,5.904-5.096,10.096
				C258.84,66.944,261.976,69.08,265.336,69.08z"/>
			<path d="M28.088,68.864c1.384,0.944,2.952,1.392,4.504,1.392c2.56,0,5.072-1.224,6.624-3.488c2.792-4.096,5.888-8.072,9.2-11.808
				c2.928-3.304,2.616-8.368-0.688-11.296c-3.304-2.928-8.36-2.624-11.288,0.688c-3.76,4.232-7.272,8.744-10.448,13.392
				C23.504,61.392,24.44,66.368,28.088,68.864z"/>
			<path d="M335.992,264.192l-160.448-0.184c-0.016,0-0.032,0-0.04,0c-4.4,0-7.976,3.048-8,7.456
				c-0.024,4.416,3.544,7.512,7.96,7.536l160.448,1c0.016,0,0.032,0,0.04,0c4.4,0,7.976-3.464,8-7.864
				C343.976,267.72,340.408,264.216,335.992,264.192z"/>
			<path d="M400.168,280c4.4,0,7.976-3.56,7.992-7.96c0.024-4.424-3.544-8.024-7.96-8.048l-16.072,0.016c-0.008,0-0.024,0-0.032,0
				c-4.4,0-7.984,3.488-8,7.896c-0.016,4.416,3.544,7.952,7.968,7.968L400.128,280C400.144,280,400.16,280,400.168,280z"/>
			<path d="M422,151.984h-32.344c0.208-2.08,0.328-3.856,0.336-6.52c0-39.84-23.128-75.024-58.936-89.64
				c-4.104-1.688-8.768,0.296-10.432,4.384c-1.672,4.096,0.296,8.768,4.384,10.432c29.76,12.144,48.984,41.52,48.984,75.072
				c-0.008,2.608-0.2,4.184-0.488,6.792c-0.192,1.72-0.424,3.832-0.696,6.768c-0.2,2.24,0.552,4.456,2.064,6.12
				c1.512,1.664,3.656,2.608,5.904,2.608H422c24.264,0,44,21.528,44,48c0,17.6-8.824,33.776-23.024,42.2
				c-3.8,2.256-5.056,7.16-2.8,10.96c1.496,2.52,4.16,3.92,6.888,3.92c1.384,0,2.792-0.36,4.072-1.136
				c19.04-11.296,30.864-32.736,30.864-55.96C482,180.696,455.088,151.984,422,151.984z"/>
			<path d="M58,352c-17.648,0-32,14.352-32,32s14.352,32,32,32s32-14.352,32-32S75.648,352,58,352z M58,400c-8.824,0-16-7.176-16-16
				c0-8.824,7.176-16,16-16s16,7.176,16,16C74,392.824,66.824,400,58,400z"/>
			<path d="M430,384c-17.648,0-32,14.352-32,32s14.352,32,32,32s32-14.352,32-32S447.648,384,430,384z M430,432
				c-8.824,0-16-7.176-16-16c0-8.824,7.176-16,16-16c8.824,0,16,7.176,16,16C446,424.824,438.824,432,430,432z"/>
			<path d="M203,420c-17.648,0-32,14.352-32,32s14.352,32,32,32s32-14.352,32-32S220.648,420,203,420z M203,468
				c-8.824,0-16-7.176-16-16c0-8.824,7.176-16,16-16c8.824,0,16,7.176,16,16C219,460.824,211.824,468,203,468z"/>
			<path d="M275,300c-17.648,0-32,14.352-32,32s14.352,32,32,32s32-14.352,32-32S292.648,300,275,300z M275,348
				c-8.824,0-16-7.176-16-16c0-8.824,7.176-16,16-16c8.824,0,16,7.176,16,16C291,340.824,283.824,348,275,348z"/>
		</g>
	</g>
</g>
<g>
</g>
<g>
</g>
<g>
</g>
<g>
</g>
<g>
</g>
<g>
</g>
<g>
</g>
<g>
</g>
<g>
</g>
<g>
</g>
<g>
</g>
<g>
</g>
<g>
</g>
<g>
</g>
<g>
</g>
</svg>
