<?xml version="1.0" encoding="iso-8859-1"?>
<!-- Generator: Adobe Illustrator 19.0.0, SVG Export Plug-In . SVG Version: 6.00 Build 0)  -->
<svg version="1.1" id="Layer_1" xmlns="http://www.w3.org/2000/svg" xmlns:xlink="http://www.w3.org/1999/xlink" x="0px" y="0px"
	 viewBox="0 0 480 480" style="enable-background:new 0 0 480 480;" xml:space="preserve">
<g>
	<g>
		<g>
			<path d="M409.84,33.352c31.752,18.384,51.472,52.568,51.472,89.216c0.008,13.688-2.632,26.992-7.848,39.536
				c-1.704,4.08,0.224,8.76,4.312,10.456c1,0.424,2.04,0.616,3.072,0.616c3.136,0,6.112-1.848,7.376-4.92
				c6.04-14.504,9.096-29.872,9.088-45.688c0-42.328-22.784-81.824-59.456-103.056c-3.808-2.232-8.712-0.92-10.928,2.912
				C404.704,26.24,406.008,31.144,409.84,33.352z"/>
			<path d="M358.256,239.512c0.008,0,0.016,0,0.024,0c18.432,0,36.104-3.32,52.52-11.4c3.968-1.952,5.592-5.968,3.648-9.928
				c-1.944-3.96-6.768-6.096-10.712-4.168c-14.208,6.992-29.496,9.496-45.456,9.496c-0.008,0-0.016,0-0.024,0
				c-34.456,0-66.496-16.448-85.704-45.288c-2.448-3.688-7.432-3.912-11.088-1.456c-3.68,2.456-4.68,6.896-2.232,10.576
				C281.416,220.664,318.424,239.512,358.256,239.512z"/>
			<path d="M438.304,187.488c-3.12,3.832-6.544,7.472-10.168,10.816c-3.256,3-3.456,8.064-0.464,11.304
				c1.576,1.712,3.72,2.576,5.88,2.576c1.944,0,3.888-0.704,5.432-2.12c4.192-3.872,8.144-8.064,11.728-12.488
				c2.784-3.424,2.272-8.464-1.16-11.248C446.128,183.536,441.088,184.056,438.304,187.488z"/>
			<path d="M332.168,163.544c1.728,0,3.48-0.56,4.952-1.712c28.808-22.752,45.328-56.824,45.328-93.488
				c0-16.48-3.48-32.776-10.144-47.856c3.4,0.456,6.776,1.088,10.096,1.888c4.312,1.024,8.608-1.624,9.64-5.92
				c1.032-4.296-1.624-8.608-5.92-9.64c-5.528-1.32-11.216-2.264-16.896-2.784c-1.936-0.2-3.832,0.368-5.328,1.432
				c-2.536-2.184-6.272-2.592-9.312-0.792c-3.792,2.264-5.024,7.176-2.76,10.976c9.568,16,14.624,34.216,14.624,52.696
				c0,31.736-14.304,61.232-39.248,80.92c-3.464,2.744-4.056,7.768-1.32,11.24C327.456,162.496,329.8,163.544,332.168,163.544z"/>
			<path d="M289.328,184.336c0.616,0,1.24-0.072,1.864-0.224c5.552-1.328,11.048-3.064,16.336-5.176
				c4.104-1.64,6.104-6.288,4.464-10.4c-1.64-4.104-6.296-6.096-10.4-4.464c-4.568,1.824-9.312,3.328-14.12,4.48
				c-4.296,1.032-6.944,5.344-5.92,9.64C282.432,181.864,285.712,184.336,289.328,184.336z"/>
			<path d="M114.064,211.904l20.472-19.944c2.184-2.12,2.96-5.304,2.024-8.192c-0.952-2.904-3.448-5.008-6.464-5.448l-28.28-4.112
				l-12.648-25.632c-2.688-5.472-11.656-5.472-14.344,0l-12.648,25.632l-28.28,4.112c-3.016,0.44-5.52,2.552-6.464,5.448
				c-0.936,2.888-0.152,6.064,2.024,8.192l20.472,19.944l-4.832,28.176c-0.52,3,0.712,6.032,3.176,7.824
				c2.472,1.792,5.752,2.032,8.424,0.608L82,235.216l25.304,13.296c1.168,0.616,2.448,0.92,3.72,0.92
				c1.656,0,3.312-0.512,4.696-1.528c2.456-1.792,3.688-4.824,3.176-7.824L114.064,211.904z M99.888,203.384
				c-1.88,1.84-2.744,4.488-2.296,7.08l2.808,16.344l-14.68-7.712c-1.168-0.616-2.44-0.92-3.72-0.92c-1.28,0-2.552,0.304-3.72,0.92
				l-14.68,7.712l2.792-16.344c0.448-2.592-0.416-5.248-2.296-7.08l-11.864-11.568l16.4-2.384c2.608-0.376,4.856-2.016,6.024-4.376
				l7.336-14.864l7.336,14.864c1.168,2.36,3.416,4,6.024,4.376l16.4,2.384L99.888,203.384z"/>
			<path d="M157.44,63.528c3.16,3.08,8.24,3.024,11.312-0.144c3.08-3.16,3.024-8.232-0.144-11.312l-4.368-4.256l16.4-2.384
				c2.608-0.376,4.856-2.016,6.024-4.376L194,26.192l7.336,14.864c1.168,2.36,3.416,4,6.024,4.376l16.392,2.376l-11.864,11.568
				c-1.88,1.84-2.744,4.488-2.296,7.08L212.4,82.8l-11.184-5.872c-3.912-2.056-8.744-0.56-10.8,3.36
				c-2.064,3.912-0.552,8.744,3.36,10.8l25.528,13.424c1.168,0.616,2.448,0.92,3.72,0.92c1.656,0,3.312-0.512,4.704-1.528
				c2.456-1.792,3.688-4.824,3.176-7.824l-4.832-28.176l20.472-19.944c2.184-2.12,2.96-5.304,2.024-8.192
				c-0.952-2.904-3.448-5.008-6.464-5.448l-28.28-4.112L201.176,4.576c-2.688-5.472-11.656-5.472-14.344,0l-12.648,25.632
				l-28.28,4.112c-3.016,0.44-5.52,2.552-6.464,5.448c-0.936,2.888-0.152,6.064,2.024,8.192L157.44,63.528z"/>
			<path d="M168.704,104.504l4.184-2.2c3.904-2.056,5.416-6.896,3.352-10.808c-0.456-0.864-1.056-1.624-1.752-2.24l0.272-1.584
				c0.752-4.352-2.168-8.488-6.528-9.232c-4.328-0.728-8.488,2.176-9.232,6.528l-1.904,11.112c-0.52,3,0.712,6.032,3.176,7.832
				c1.4,1.008,3.048,1.52,4.704,1.52C166.248,105.432,167.528,105.128,168.704,104.504z"/>
			<path d="M217.872,224.904c-4.704-3.192-9.616-6.12-14.6-8.672c-3.912-2.024-8.752-0.464-10.768,3.472
				c-2.016,3.936-0.464,8.752,3.472,10.768c4.4,2.256,8.728,4.84,12.896,7.672c1.376,0.936,2.952,1.384,4.496,1.384
				c2.56,0,5.08-1.224,6.624-3.504C222.472,232.368,221.528,227.392,217.872,224.904z"/>
			<path d="M287.88,462.896l-153.968-0.728c-1.912-0.144-3.816-0.304-5.688-0.52c-4.424-0.528-8.368,2.656-8.88,7.048
				c-0.512,4.392,2.624,8.448,7.008,8.96c2.104,0.256,4.24,0.608,6.936,0.784l154.512,1.072c0.016,0,0.024,0,0.04,0
				c4.4,0,7.984-3.864,8-8.272C295.864,466.824,292.304,462.92,287.88,462.896z"/>
			<path d="M403.992,367.512c0-4.424-3.576-8-8-8h-16.056c-4.424,0-8,3.576-8,8s3.576,8,8,8h16.056
				C400.416,375.512,403.992,371.936,403.992,367.512z"/>
			<path d="M446.744,365.384c-4.024-1.888-8.768-0.168-10.656,3.816c-1.88,3.992-0.176,8.768,3.816,10.656
				C454.992,386.992,464,401.824,464,419.528c0,25.496-18.512,44.016-44.104,44.016c-0.552,0-5.968,0-14.848-0.048l-4.808,0.016
				c-0.016,0-0.024,0-0.04,0c-4.4,0-7.976,3.512-8,7.92c-0.024,4.416,3.536,7.976,7.96,8l4.808,0.024
				c9.592,0.048,15.216,0.072,15.032,0.072c34.2,0,60-25.8,60-60.008C480,395.472,467.568,375.24,446.744,365.384z"/>
			<path d="M378.112,328.784c4.216-1.312,6.576-5.8,5.264-10.016C372.92,285.12,346.344,259.792,314,252.664
				c-22.528-4.976-44.432-3.152-62.936,5.176c-2.584-1.296-5.776-1.176-8.272,0.624c-3.592,2.568-4.424,7.568-1.856,11.16
				c0.576,0.816,1.144,1.64,1.696,2.472c2.288,3.416,6.808,4.552,10.448,2.584c16.336-8.808,36.416-11.04,57.496-6.392
				c26.728,5.888,48.776,27.056,57.528,55.224c1.064,3.432,4.224,5.624,7.64,5.624C376.52,329.136,377.328,329.016,378.112,328.784z
				"/>
			<path d="M154.752,201.76c-1.92-0.208-3.84-0.36-5.784-0.48c-4.344-0.192-8.2,3.088-8.464,7.504
				c-0.272,4.408,3.088,8.2,7.504,8.464c1.712,0.104,3.4,0.248,5.08,0.416c0.28,0.032,0.56,0.048,0.832,0.048
				c4.048,0,7.528-3.048,7.96-7.168C162.336,206.152,159.152,202.216,154.752,201.76z"/>
			<path d="M16,335.512c0-24.28,6.984-47.648,20.2-67.576c2.448-3.68,1.44-8.648-2.24-11.088c-3.688-2.464-8.656-1.448-11.088,2.24
				C7.904,281.648,0,308.072,0,335.512c0,30.272,9.536,58.936,27.584,82.904c1.568,2.08,3.968,3.184,6.4,3.184
				c1.672,0,3.368-0.528,4.808-1.616c3.528-2.656,4.232-7.672,1.576-11.2C24.432,387.624,16,362.288,16,335.512z"/>
			<path d="M352.08,463.4l-16.072,0.12c-0.008,0-0.024,0-0.032,0c-4.408,0-7.984,3.44-8,7.848c-0.016,4.408,3.544,7.896,7.968,7.912
				l16.04,0.232c0.016,0,0.032,0,0.048,0c4.4,0,7.976-3.608,8-8.008C360.056,467.088,356.504,463.424,352.08,463.4z"/>
			<path d="M85.416,448.464c-4.392-2.328-8.672-4.96-12.728-7.832c-3.624-2.56-8.608-1.696-11.16,1.904
				c-2.56,3.616-1.696,8.608,1.904,11.16c4.624,3.264,9.496,6.264,14.496,8.912c1.192,0.632,2.472,0.928,3.736,0.928
				c2.864,0,5.64-1.544,7.08-4.256C90.816,455.376,89.32,450.536,85.416,448.464z"/>
		</g>
	</g>
</g>
<g>
</g>
<g>
</g>
<g>
</g>
<g>
</g>
<g>
</g>
<g>
</g>
<g>
</g>
<g>
</g>
<g>
</g>
<g>
</g>
<g>
</g>
<g>
</g>
<g>
</g>
<g>
</g>
<g>
</g>
</svg>
